<svg xmlns="http://www.w3.org/2000/svg" viewBox="0 0 500 500"><g id="freepik--Floor--inject-16"><path id="freepik--floor--inject-16" d="M77.66,243.85c-95.18,55-95.17,144,0,199s249.49,54.95,344.67,0,95.17-144,0-199S172.84,188.9,77.66,243.85Z" style="fill:#f0f0f0"></path></g><g id="freepik--Icon--inject-16"><g id="freepik--Sign--inject-16"><path d="M169.7,44.54c5,2.92,8.17,9.17,8.17,18.06,0,17.79-12.5,39.43-27.9,48.32-7.7,4.45-14.68,4.87-19.73,2l-4.3-2.49c-5-2.91-8.17-9.16-8.17-18.06,0-17.79,12.49-39.42,27.9-48.32,7.7-4.45,14.68-4.86,19.73-1.95Z" style="fill:#e0e0e0"></path><path d="M150,110.92c-7.7,4.45-14.68,4.87-19.73,2s-8.17-9.16-8.17-18.06c0-17.79,12.49-39.42,27.9-48.32,7.7-4.44,14.68-4.86,19.73-2s8.17,9.17,8.17,18.06C177.87,80.39,165.38,102,150,110.92Z" style="fill:#f5f5f5"></path><path d="M138.17,111.76a12.5,12.5,0,0,1-6.34-1.63c-4.79-2.76-7.32-8.68-7.12-16.65.38-16,11.79-35.72,25.42-44,6.81-4.15,13.19-4.91,18-2.15s7.31,8.67,7.12,16.64c-.38,16-11.79,35.73-25.42,44h0C145.68,110.49,141.72,111.76,138.17,111.76Zm23.59-64.1c-3.18,0-6.79,1.17-10.59,3.49-13.12,8-24.09,27-24.46,42.38-.18,7.21,2,12.49,6.12,14.87s9.78,1.62,15.93-2.13h0c13.13-8,24.1-27,24.47-42.38.18-7.21-2-12.49-6.12-14.87A10.56,10.56,0,0,0,161.76,47.66Z" style="fill:#e0e0e0"></path><path d="M164.76,64.77h0l-4.51-7.05a.83.83,0,0,0,0-.15v-.38c0-.34-.2-.5-.46-.35l-9.23,5.33V59.22c0-.61-.28-.94-.63-.74a1.84,1.84,0,0,0-.64,1.47v2.94l-9.22,5.33a1.09,1.09,0,0,0-.46.88v.1l-4.52,12.26s0,0,0,.05a.53.53,0,0,0,0,.12c0,2.46.77,4.31,2.11,5.09a2.84,2.84,0,0,0,1.4.37,3.82,3.82,0,0,0,1.88-.55c2.71-1.57,4.91-6.19,4.91-10.31a.48.48,0,0,0-.07-.24h0L141,69.29l8.29-4.79V89.31l-3,1.74a3.36,3.36,0,0,0-1.41,2.69v1l-.69.4a6.61,6.61,0,0,0-2.75,5.27v.27l17-9.81v-.27c0-2-1.23-3-2.75-2.08l-.69.4v-1c0-1-.64-1.51-1.41-1.06l-3,1.73V63.77l8.06-4.66-4.09,11.13s0,0,0,.05a.42.42,0,0,0,0,.12c0,2.46.77,4.31,2.11,5.09a2.83,2.83,0,0,0,1.39.37,3.88,3.88,0,0,0,1.89-.55c2.7-1.57,4.91-6.19,4.91-10.31A.41.41,0,0,0,164.76,64.77ZM140.37,70l3.88,6.06-7.76,4.48ZM140,85.71a2.29,2.29,0,0,1-2.32.18c-1-.57-1.57-2-1.62-4l8.34-4.82C144.15,80.66,142.28,84.4,140,85.71Zm23.67-20.86-7.76,4.48,3.88-10.54Zm-4.23,9.63a2.27,2.27,0,0,1-2.32.19c-1-.57-1.58-2-1.63-4l8.35-4.82C163.58,69.44,161.71,73.18,159.45,74.48Z" style="fill:#e0e0e0"></path><path d="M164.76,64.77h0l-4.51-7.05a.83.83,0,0,0,0-.15v-.38c0-.34-.2-.5-.46-.35l-9.23,5.33V59.22c0-.61-.28-.94-.63-.74a1.84,1.84,0,0,0-.64,1.47v2.94l-9.22,5.33a1.09,1.09,0,0,0-.46.88v.1l-4.52,12.26s0,0,0,.05a.53.53,0,0,0,0,.12c0,2.46.77,4.31,2.11,5.09a2.84,2.84,0,0,0,1.4.37,3.82,3.82,0,0,0,1.88-.55c2.71-1.57,4.91-6.19,4.91-10.31a.48.48,0,0,0-.07-.24h0L141,69.29l8.29-4.79V89.31l-3,1.74a3.36,3.36,0,0,0-1.41,2.69v1l-.69.4a6.61,6.61,0,0,0-2.75,5.27v.27l17-9.81v-.27c0-2-1.23-3-2.75-2.08l-.69.4v-1c0-1-.64-1.51-1.41-1.06l-3,1.73V63.77l8.06-4.66-4.09,11.13s0,0,0,.05a.42.42,0,0,0,0,.12c0,2.46.77,4.31,2.11,5.09a2.83,2.83,0,0,0,1.39.37,3.88,3.88,0,0,0,1.89-.55c2.7-1.57,4.91-6.19,4.91-10.31A.41.41,0,0,0,164.76,64.77ZM140.37,70l3.88,6.06-7.76,4.48ZM140,85.71a2.29,2.29,0,0,1-2.32.18c-1-.57-1.57-2-1.62-4l8.34-4.82C144.15,80.66,142.28,84.4,140,85.71Zm23.67-20.86-7.76,4.48,3.88-10.54Zm-4.23,9.63a2.27,2.27,0,0,1-2.32.19c-1-.57-1.58-2-1.63-4l8.35-4.82C163.58,69.44,161.71,73.18,159.45,74.48Z" style="opacity:0.1"></path></g></g><g id="freepik--Plants--inject-16"><g id="freepik--plants--inject-16"><path d="M448.18,298.5l-8.49-4.91s-5.06-21-3-39.9c2.83-26.58,20.32-36.58,27-34.28s8.58,10-2.43,25.85C454.7,254.6,446.72,274.05,448.18,298.5Z" style="fill:#407BFF"></path><g style="opacity:0.65"><path d="M448.18,298.5l-8.49-4.91s-5.06-21-3-39.9c2.83-26.58,20.32-36.58,27-34.28s8.58,10-2.43,25.85C454.7,254.6,446.72,274.05,448.18,298.5Z" style="fill:#fff"></path></g><path d="M444.66,288.18h.08a.59.59,0,0,0,.47-.68c-4.66-24.52,3.91-52.06,14.51-63.52a.59.59,0,0,0,0-.83.6.6,0,0,0-.84,0c-10.79,11.67-19.52,39.66-14.8,64.53A.58.58,0,0,0,444.66,288.18Z" style="fill:#fff"></path><path d="M469.56,310.85c1.27.64,4.64-2.25,5.58-3a11.78,11.78,0,0,0,3.69-4.69,11,11,0,0,0,.64-6.67,24.73,24.73,0,0,0-1-3.48c-.39-1.13-.77-2.25-1.16-3.37a8.7,8.7,0,0,1-.67-3.43c.18-2.35,2.17-4.09,4-5.6,2-1.67,4.08-3.84,3.92-6.65a9.87,9.87,0,0,0-2.78-5.77c-1.43-1.64-3.1-3.06-4.41-4.8a7,7,0,0,1-1.64-4.31,7.25,7.25,0,0,1,.82-2.78c.9-1.88,2.13-3.62,2.71-5.63s.37-4.45-1.24-5.78c-1.32-1.09-3.2-1.16-4.9-1a11.17,11.17,0,0,0-4.43,1.82c-4.34,2.71-6.63,8.13-11.27,10.28a47.45,47.45,0,0,1-5.67,1.69c-1.88.6-3.78,1.67-4.57,3.48-1.57,3.57,1.88,7.69.84,11.44-.92,3.32-4,4.73-5.66,7.76a7,7,0,0,0-.62,4.32,20.6,20.6,0,0,0,2.17,7.14,63.68,63.68,0,0,0,4.29,6.59S469.36,310.75,469.56,310.85Z" style="fill:#407BFF"></path><g style="opacity:0.30000000000000004"><path d="M469.56,310.85c1.27.64,4.64-2.25,5.58-3a11.78,11.78,0,0,0,3.69-4.69,11,11,0,0,0,.64-6.67,24.73,24.73,0,0,0-1-3.48c-.39-1.13-.77-2.25-1.16-3.37a8.7,8.7,0,0,1-.67-3.43c.18-2.35,2.17-4.09,4-5.6,2-1.67,4.08-3.84,3.92-6.65a9.87,9.87,0,0,0-2.78-5.77c-1.43-1.64-3.1-3.06-4.41-4.8a7,7,0,0,1-1.64-4.31,7.25,7.25,0,0,1,.82-2.78c.9-1.88,2.13-3.62,2.71-5.63s.37-4.45-1.24-5.78c-1.32-1.09-3.2-1.16-4.9-1a11.17,11.17,0,0,0-4.43,1.82c-4.34,2.71-6.63,8.13-11.27,10.28a47.45,47.45,0,0,1-5.67,1.69c-1.88.6-3.78,1.67-4.57,3.48-1.57,3.57,1.88,7.69.84,11.44-.92,3.32-4,4.73-5.66,7.76a7,7,0,0,0-.62,4.32,20.6,20.6,0,0,0,2.17,7.14,63.68,63.68,0,0,0,4.29,6.59S469.36,310.75,469.56,310.85Z" style="fill:#fff"></path></g><path d="M457.26,304.44h0a.56.56,0,0,0,.51-.61c-2-22.05,7.15-47,14.36-54.43a.56.56,0,1,0-.8-.77c-7.36,7.61-16.73,32.95-14.67,55.3A.57.57,0,0,0,457.26,304.44Z" style="fill:#fff"></path><path d="M459.45,277.25a.51.51,0,0,0,.17,0,74.9,74.9,0,0,1,15.9-3.39.56.56,0,0,0,.5-.61.54.54,0,0,0-.6-.5,76.25,76.25,0,0,0-16.19,3.45.57.57,0,0,0-.33.72A.55.55,0,0,0,459.45,277.25Z" style="fill:#fff"></path></g></g><g id="freepik--Platform--inject-16"><g id="freepik--Pallet--inject-16"><polygon points="20.6 351.09 210.17 460.52 475.45 307.48 285.88 198.04 20.6 351.09" style="fill:#455a64"></polygon><polygon points="20.6 351.09 20.6 361.37 210.17 470.8 210.17 460.52 20.6 351.09" style="fill:#263238"></polygon><polygon points="475.45 307.48 475.45 317.76 210.17 470.8 210.17 460.52 475.45 307.48" style="fill:#37474f"></polygon></g></g><g id="freepik--Flag--inject-16"><g id="freepik--flag--inject-16"><path d="M60.41,342.53c-5.49-3.16-14.38-3.16-19.87,0-2.74,1.59-4.11,3.66-4.1,5.74v2.15c0,2.07,1.36,4.15,4.1,5.73,5.49,3.17,14.38,3.17,19.87,0,2.75-1.58,4.11-3.66,4.1-5.73v-2.15C64.52,346.19,63.16,344.12,60.41,342.53Z" style="fill:#407BFF"></path><path d="M60.41,342.53c-5.49-3.16-14.38-3.16-19.87,0-2.74,1.59-4.11,3.66-4.1,5.74v2.15c0,2.07,1.36,4.15,4.1,5.73,5.49,3.17,14.38,3.17,19.87,0,2.75-1.58,4.11-3.66,4.1-5.73v-2.15C64.52,346.19,63.16,344.12,60.41,342.53Z" style="opacity:0.35000000000000003"></path><path d="M40.54,342.53c-5.49,3.17-5.49,8.31,0,11.48s14.38,3.16,19.87,0,5.49-8.31,0-11.48S46,339.37,40.54,342.53Z" style="fill:#407BFF"></path><path d="M40.54,342.53c-5.49,3.17-5.49,8.31,0,11.48s14.38,3.16,19.87,0,5.49-8.31,0-11.48S46,339.37,40.54,342.53Z" style="fill:#fff;opacity:0.2"></path><path d="M59.4,340.49c-4.93-2.85-12.92-2.85-17.85,0-2.47,1.42-3.69,3.29-3.68,5.15v1.41c0,1.87,1.21,3.73,3.68,5.16,4.93,2.84,12.92,2.84,17.85,0,2.47-1.43,3.69-3.29,3.69-5.16,0-.57,0-.83,0-1.41C63.09,343.78,61.87,341.91,59.4,340.49Z" style="fill:#407BFF"></path><path d="M59.4,340.49c-4.93-2.85-12.92-2.85-17.85,0-2.47,1.42-3.69,3.29-3.68,5.15v1.41c0,1.87,1.21,3.73,3.68,5.16,4.93,2.84,12.92,2.84,17.85,0,2.47-1.43,3.69-3.29,3.69-5.16,0-.57,0-.83,0-1.41C63.09,343.78,61.87,341.91,59.4,340.49Z" style="opacity:0.2"></path><ellipse cx="50.48" cy="345.64" rx="12.62" ry="7.29" style="fill:#407BFF"></ellipse><ellipse cx="50.48" cy="345.64" rx="12.62" ry="7.29" style="fill:#fff;opacity:0.2"></ellipse><path d="M52,86.45a1.6,1.6,0,0,0-1.59-1.6h0a1.6,1.6,0,0,0-1.6,1.6V345.38h0a.8.8,0,0,0,.47.66,2.5,2.5,0,0,0,2.26,0,.8.8,0,0,0,.46-.66h0Z" style="fill:#407BFF"></path><path d="M52,86.45a1.6,1.6,0,0,0-1.59-1.6h0a1.6,1.6,0,0,0-1.6,1.6V345.38h0a.8.8,0,0,0,.47.66,2.5,2.5,0,0,0,2.26,0,.8.8,0,0,0,.46-.66h0Z" style="opacity:0.2"></path><path d="M50.38,84.85h0a1.6,1.6,0,0,0-1.6,1.6v1.9a4.39,4.39,0,0,0,3.19,0v-1.9A1.6,1.6,0,0,0,50.38,84.85Z" style="opacity:0.2"></path><path d="M54.82,83.24a4.45,4.45,0,1,1-4.44-4.44A4.44,4.44,0,0,1,54.82,83.24Z" style="fill:#407BFF"></path><path d="M36,233.63C35,245.32,52,253.19,65.24,250.22l-3.81-56.36L40,196.75Z" style="fill:#455a64"></path><path d="M36.71,230.24a15.66,15.66,0,0,0-.69,2.91l6.9-62.62c11.72,3.64,21.14,13.12,22.85,26.86C67.63,212.16,41.88,214.32,36.71,230.24Z" style="fill:#37474f"></path><path d="M52.36,79.28a4.34,4.34,0,0,0-4,0,2.79,2.79,0,0,0,4,0Z" style="opacity:0.2"></path><path d="M54,75.1c0,2-1.62,4.38-3.62,4.38s-3.63-2.38-3.63-4.38,3.63-10.88,3.63-10.88S54,73.09,54,75.1Z" style="fill:#407BFF"></path><path d="M52,92.14,37.69,173.76s10.45,3.82,16.64,7.93c10.19,6.77,11.45,15.9,11.45,15.9Z" style="fill:#455a64"></path></g></g><g id="freepik--Shadows--inject-16"><polygon id="freepik--Shadow--inject-16" points="186.25 435.56 124.32 399.81 371.47 257.19 433.4 292.95 358.8 336.01 377.85 347.01 275.21 406.26 256.16 395.26 186.25 435.56" style="opacity:0.15"></polygon><path id="freepik--shadow--inject-16" d="M119.5,395.33,69,366.3a1,1,0,0,1,0-1.93l64.71-37.57a3.71,3.71,0,0,1,3.34,0l50.5,29a1,1,0,0,1,0,1.93l-64.71,37.56A3.68,3.68,0,0,1,119.5,395.33Z" style="opacity:0.15"></path><path id="freepik--shadow--inject-16" d="M310,283.46l-50.5-29a1,1,0,0,1,0-1.93l56.8-33a3.68,3.68,0,0,1,3.34,0l50.5,29a1,1,0,0,1,0,1.93l-56.8,33A3.68,3.68,0,0,1,310,283.46Z" style="opacity:0.15"></path><path id="freepik--shadow--inject-16" d="M207.11,328.61l-50.5-29a1,1,0,0,1,0-1.93l64.71-37.56a3.68,3.68,0,0,1,3.34,0l50.5,29a1,1,0,0,1,0,1.93l-64.71,37.57A3.71,3.71,0,0,1,207.11,328.61Z" style="opacity:0.15"></path></g><g id="freepik--character-3--inject-16"><g id="freepik--Judge--inject-16"><path d="M288.42,265a4.52,4.52,0,0,0,.1.94,2.21,2.21,0,0,0,.86,1.33l0,0a2.48,2.48,0,0,0,2.62-.21,8,8,0,0,0,3.62-6.25,2.57,2.57,0,0,0-1-2.29h0l-.17-.1h0a2.17,2.17,0,0,0-1.54-.06,4.17,4.17,0,0,0-.89.38A8,8,0,0,0,288.42,265Z" style="fill:#455a64"></path><path d="M289.41,257.24a3.26,3.26,0,0,1,1.61-.49,1.92,1.92,0,0,1,1,.28l.1.05,2.33,1.35a2.17,2.17,0,0,0-1.54-.06,4.17,4.17,0,0,0-.89.38,8,8,0,0,0-3.61,6.25,4.52,4.52,0,0,0,.1.94,2.21,2.21,0,0,0,.86,1.33L287,265.88l0,0-.21-.12-.06,0a2.66,2.66,0,0,1-.88-2.22A8,8,0,0,1,289.41,257.24Z" style="fill:#263238"></path><path d="M327.49,244a4.06,4.06,0,0,0,.11.95,2.16,2.16,0,0,0,.85,1.32l0,0a2.5,2.5,0,0,0,2.63-.21,8,8,0,0,0,3.61-6.25,2.57,2.57,0,0,0-1-2.29h0l-.17-.1h0a2.17,2.17,0,0,0-1.54-.06,4.11,4.11,0,0,0-.88.38A8,8,0,0,0,327.49,244Z" style="fill:#455a64"></path><path d="M328.48,236.23a3.26,3.26,0,0,1,1.61-.49,2,2,0,0,1,1,.28l.09,0,2.33,1.35a2.17,2.17,0,0,0-1.54-.06,4.11,4.11,0,0,0-.88.38,8,8,0,0,0-3.62,6.25,4.06,4.06,0,0,0,.11.95,2.16,2.16,0,0,0,.85,1.32l-2.39-1.39,0,0-.2-.12-.07,0a2.66,2.66,0,0,1-.88-2.22A8,8,0,0,1,328.48,236.23Z" style="fill:#263238"></path><path d="M320.52,273.2a4.62,4.62,0,0,1-.1.95,2.13,2.13,0,0,1-.85,1.32l0,0a2.5,2.5,0,0,1-2.63-.2A8,8,0,0,1,313.3,269a2.57,2.57,0,0,1,1-2.29h0l.17-.1h0a2.29,2.29,0,0,1,1.54-.06,3.71,3.71,0,0,1,.88.39A7.93,7.93,0,0,1,320.52,273.2Z" style="fill:#455a64"></path><path d="M319.54,265.44a3.26,3.26,0,0,0-1.61-.49,1.87,1.87,0,0,0-1,.29l-.09.05-2.33,1.34a2.29,2.29,0,0,1,1.54-.06,3.71,3.71,0,0,1,.88.39,7.93,7.93,0,0,1,3.61,6.24,4.62,4.62,0,0,1-.1.95,2.13,2.13,0,0,1-.85,1.32l2.39-1.38,0,0,.2-.13.06,0a2.65,2.65,0,0,0,.89-2.21A8,8,0,0,0,319.54,265.44Z" style="fill:#263238"></path><path d="M345.89,260.78a4.06,4.06,0,0,1-.11,1,2.16,2.16,0,0,1-.85,1.32l0,0a2.5,2.5,0,0,1-2.63-.21,8,8,0,0,1-3.61-6.25,2.57,2.57,0,0,1,1-2.29h0l.17-.1h0a2.17,2.17,0,0,1,1.54-.06,4.11,4.11,0,0,1,.88.38A8,8,0,0,1,345.89,260.78Z" style="fill:#455a64"></path><path d="M344.9,253a3.26,3.26,0,0,0-1.61-.49,2,2,0,0,0-1,.28l-.09.05-2.33,1.35a2.17,2.17,0,0,1,1.54-.06,4.11,4.11,0,0,1,.88.38,8,8,0,0,1,3.62,6.25,4.06,4.06,0,0,1-.11,1,2.16,2.16,0,0,1-.85,1.32l2.39-1.39,0,0,.21-.12.06,0a2.66,2.66,0,0,0,.88-2.22A8,8,0,0,0,344.9,253Z" style="fill:#263238"></path><path d="M296.86,245.54a4.62,4.62,0,0,1-.1,1,2.18,2.18,0,0,1-.85,1.32l0,0a2.48,2.48,0,0,1-2.62-.2,8,8,0,0,1-3.61-6.26,2.54,2.54,0,0,1,1-2.29h0l.17-.1h0a2.26,2.26,0,0,1,1.53-.06,3.77,3.77,0,0,1,.89.39A8,8,0,0,1,296.86,245.54Z" style="fill:#455a64"></path><path d="M295.87,237.78a3.2,3.2,0,0,0-1.6-.49,1.85,1.85,0,0,0-1,.29l-.09,0L290.83,239a2.26,2.26,0,0,1,1.53-.06,3.77,3.77,0,0,1,.89.39,8,8,0,0,1,3.61,6.24,4.62,4.62,0,0,1-.1,1,2.18,2.18,0,0,1-.85,1.32l2.39-1.38,0,0,.2-.13.06,0a2.65,2.65,0,0,0,.89-2.21A8,8,0,0,0,295.87,237.78Z" style="fill:#263238"></path><polygon points="318.42 237.91 331.32 234.21 331.32 236.96 318.42 244.4 318.42 237.91" style="fill:#ebebeb"></polygon><polygon points="318.42 237.91 317.15 237.13 330.08 233.59 331.32 234.21 318.42 237.91" style="fill:#f5f5f5"></polygon><polygon points="312.84 246.13 294.56 239.28 294.56 236.49 312.84 238.12 312.84 246.13" style="fill:#ebebeb"></polygon><polygon points="294.56 236.49 295.9 236.13 313.93 237.3 312.84 238.12 294.56 236.49" style="fill:#f5f5f5"></polygon><path d="M312.35,245.25c0,2.07,6.36,2.07,6.36,0V227.17h-6.36Z" style="fill:#fafafa"></path><path d="M317.12,240.54l3.5,22.7h-2.39L315,240.54A4,4,0,0,0,317.12,240.54Z" style="fill:#f5f5f5"></path><polygon points="314.95 240.54 314.95 246.78 318.23 267.08 318.23 263.24 314.95 240.54" style="fill:#ebebeb"></polygon><rect x="318.23" y="263.24" width="2.39" height="3.84" style="fill:#e0e0e0"></rect><polygon points="313.87 246.59 290.29 258.95 290.29 255.14 313.87 240.56 313.87 246.59" style="fill:#ebebeb"></polygon><path d="M313.87,240.56a2.6,2.6,0,0,1-1.52-.69l-23.53,14.28,1.47,1Z" style="fill:#f5f5f5"></path><polygon points="290.29 258.95 290.29 255.14 288.82 254.15 288.82 257.84 290.29 258.95" style="fill:#e0e0e0"></polygon><polygon points="343.59 254.58 318.4 245.96 318.4 240.3 343.59 250.78 343.59 254.58" style="fill:#ebebeb"></polygon><path d="M318.4,240.3c.21-.05.3-.42.31-1l25.62,11.14-.74.31Z" style="fill:#f5f5f5"></path><polygon points="344.33 250.47 344.33 254.15 343.59 254.58 343.59 250.78 344.33 250.47" style="fill:#e0e0e0"></polygon><rect x="318.23" y="263.24" width="2.39" height="3.84" style="opacity:0.1"></rect><polygon points="290.29 258.95 290.29 255.14 288.82 254.15 288.82 257.84 290.29 258.95" style="opacity:0.1"></polygon><polygon points="344.33 250.47 344.33 254.15 343.59 254.58 343.59 250.78 344.33 250.47" style="opacity:0.1"></polygon><path d="M320.92,195.67H310.15V233c0,3.09,10.77,3.09,10.77,0Z" style="fill:#f0f0f0"></path><path d="M277.35,190.51,318.61,169s2.9-14.12-6.88-29.5c0,0,2.91-27.42-2-36.53-3.57-7-7.85-6-7.85-6l-46.86,21.16Z" style="fill:#407BFF"></path><path d="M277.35,190.51,318.61,169s2.9-14.12-6.88-29.5c0,0,2.91-27.42-2-36.53-3.57-7-7.85-6-7.85-6l-46.86,21.16Z" style="opacity:0.2"></path><path d="M301.91,96.92l-46.86,21.16,1.54,5,51.25-23.14C304.82,96.28,301.91,96.92,301.91,96.92Z" style="fill:#407BFF"></path><path d="M302.08,140.78a.86.86,0,0,0,1.41.6,2.19,2.19,0,0,0,1.05-2,.85.85,0,0,0-1.4-.61A2.24,2.24,0,0,0,302.08,140.78Z" style="fill:#fff;opacity:0.4"></path><path d="M294.94,144.9a.85.85,0,0,0,1.4.61,2.23,2.23,0,0,0,1.06-2c-.1-.73-.73-1-1.41-.61A2.2,2.2,0,0,0,294.94,144.9Z" style="fill:#fff;opacity:0.4"></path><path d="M287.8,149c.09.73.72,1,1.4.61a2.21,2.21,0,0,0,1.05-2,.86.86,0,0,0-1.4-.61A2.22,2.22,0,0,0,287.8,149Z" style="fill:#fff;opacity:0.4"></path><path d="M280.65,153.16c.1.72.73,1,1.41.6a2.24,2.24,0,0,0,1.05-2c-.1-.73-.73-1-1.41-.61A2.21,2.21,0,0,0,280.65,153.16Z" style="fill:#fff;opacity:0.4"></path><path d="M365.76,186.54v2.27a8.21,8.21,0,0,1-4,6.64l-46,24.15a9.17,9.17,0,0,1-7.94-.16l-26.53-15.32a8.68,8.68,0,0,1-3.93-6.8V195a8.21,8.21,0,0,1,4-6.63l43.53-22.74a10,10,0,0,1,8.08-.07L361.71,180A8,8,0,0,1,365.76,186.54Z" style="fill:#407BFF"></path><path d="M365.76,186.54v2.27a8.21,8.21,0,0,1-4,6.64l-46,24.15a9.17,9.17,0,0,1-7.94-.16l-26.53-15.32a8.68,8.68,0,0,1-3.93-6.8V195a8.21,8.21,0,0,1,4-6.63l43.53-22.74a10,10,0,0,1,8.08-.07L361.71,180A8,8,0,0,1,365.76,186.54Z" style="opacity:0.2"></path><path d="M315.75,208.25l46-24.14c2.22-1.17,2.2-3,0-4.14L333,165.6a10,10,0,0,0-8.08.07l-43.53,22.74c-2.22,1.16-2.26,3.11-.09,4.37l26.53,15.31A9.1,9.1,0,0,0,315.75,208.25Z" style="fill:#407BFF"></path><path d="M312.79,220.39a9,9,0,0,1-5-.95l-26.53-15.32a8.7,8.7,0,0,1-3.92-6.8V195a8.27,8.27,0,0,1,3.45-6.28c-1.64,1.17-1.49,2.88.47,4L307.8,208.1a8.61,8.61,0,0,0,4.06,1Z" style="opacity:0.2"></path><path d="M312.79,220.39a9,9,0,0,1-5-.95l-26.53-15.32a8.7,8.7,0,0,1-3.92-6.8V195a8.27,8.27,0,0,1,3.45-6.28c-1.64,1.17-1.49,2.88.47,4L307.8,208.1a8.61,8.61,0,0,0,4.06,1Z" style="opacity:0.2"></path><path d="M301.91,96.92s6.78-4.59,13.93-.46,4.79,18,4,27-1,24.55,5.25,30.22,26.79-1.87,35.74-1.87L353,180.89c-8.71-4.74-22.64-9.61-34.35-11.93,0,0,.38-18.15-7.94-28.52,0,0,3.07-7.26,1.06-21.81C309.87,105.17,307.36,100.07,301.91,96.92Z" style="fill:#407BFF"></path><path d="M301.91,96.92s6.78-4.59,13.93-.46,4.79,18,4,27-1,24.55,5.25,30.22,26.79-1.87,35.74-1.87L353,180.89c-8.71-4.74-22.64-9.61-34.35-11.93,0,0,.38-18.15-7.94-28.52,0,0,3.07-7.26,1.06-21.81C309.87,105.17,307.36,100.07,301.91,96.92Z" style="opacity:0.1"></path><path d="M353,180.89c-.41-2.6-2.06-17.59.73-24.11,2.44-5.67,8.81-6,10.82-3.57s.21,5.37-3,9.54c-2.69,3.51-3.66,6.79-3.66,15.3Z" style="fill:#407BFF"></path><g id="freepik--Character--inject-16"><g id="freepik--Bottom--inject-16"><path d="M337,225.05c-3.45-.46-6.41,2.3-6.69,3.19-.38,1.19-.25,3.61,1.16,6.6a20.72,20.72,0,0,1,1.52,9.39c-.25,2.73-1.55,9.54,1.21,13s8.87,6.4,11,1.71c.71-1.53-.72-6.85-1.36-10.72-1.28-7.73-2.26-15.41-2.26-15.41Z" style="fill:#263238"></path><path d="M336.78,244.05a12.26,12.26,0,0,0,2.22,7.22c1.58,2,5.53,3.19,5.06-1.09-.32-3-2.47-17.4-2.47-17.4l-5.71-1.56a73.69,73.69,0,0,1,.88,11.33c0,.52,0,1,0,1.5" style="fill:#ffa8a7"></path><path d="M331.42,226.87c-.16,2.55,1.22,9.33,4.67,15s8.35,12.11,9.3,16.09c.09-1.83-.68-5.17-1.25-8.15l0-.19-.09-.52c0-.07,0-.15,0-.23l-.12-.65v0c-.4-2.42-.77-4.83-1.09-7-.26-1.74-.48-3.32-.66-4.64-.1-.66-.18-1.24-.24-1.75,0-.25-.07-.49-.1-.7-.11-.84-.17-1.32-.17-1.32L337,225.05c-.23,0-.45,0-.67-.05A7.58,7.58,0,0,0,331.42,226.87Z" style="opacity:0.15"></path><path d="M351.78,180c-11.33-8.39-25.9-17.28-25.9-17.28l-34.52,1.71L327.18,191l15.42,10.37s2.94-.23,1.16,4.36c-.57,1.46-1.43,4.38-2.33,7.68l7.21,19.67s4.49-6.59,9.38-19.33c5-12.9,5.25-17.15,4.72-19.7C362.06,190.74,361,186.87,351.78,180Z" style="fill:#455a64"></path><path d="M323.57,183.44c.46.31,2.47,1.7,3,2.08,7.13,5,19.17,14.71,20.53,19a123.82,123.82,0,0,1,5.8,20.32s-.25-6.62-.52-13.11c-.37-9.07-2-11.62-5-15s-18-12.4-19.06-13c2.6-2.07,3.87-6.34,3.86-8.49C332.2,175.23,328.39,181.76,323.57,183.44Z" style="fill:#263238"></path><path d="M344.12,252.46c-.86-.12-1.07,1.44-1.79,3.39a10.88,10.88,0,0,0-.86,6c.46,2.58,4.15,3.37,5.66,6.86s3.55,9.69,10,12.2,11.89.92,13.48-1,.81-4.1-3-7.34c-4.08-3.44-5.23-4.44-5.23-4.44Z" style="fill:#263238"></path><path d="M342,245.36a16.9,16.9,0,0,1,1.5,3.79,11.17,11.17,0,0,1,.31,5.09,4.63,4.63,0,0,0,.8,3.08c.65,1,1.33,1.94,2.07,2.87,2,2.47,4.68,8.76,8.08,11.94s10,3.56,11.76,2.24a1.38,1.38,0,0,0,.38-2.11c-.54-.78-2.1-2.62-2.77-3.58A51,51,0,0,1,357,254.89c-.2-.69-.87-5.45-1.71-11.72" style="fill:#ffa8a7"></path><path d="M350.5,207.61a14,14,0,0,0-5.11-9.22c-7.59-6.77-21.59-14.9-21.59-14.9s1-12.36-1.43-19.16l-37.1-3.09a58.71,58.71,0,0,0,4.25,25.24c1.84,4.32,7.29,9.33,16.88,14.62,9.31,5.13,20.64,10.8,23,11.88s2.14,2.71,2.6,7.4c.47,4.84.77,6.87,5.21,16.27,1.68,3.56,3.52,6.19,4.85,8.71,5,2.2,9.48,1.64,13.31-2.19C353.64,230.5,351.25,211.66,350.5,207.61Z" style="fill:#455a64"></path></g><g id="freepik--Top--inject-16"><g id="freepik--Arm--inject-16"><path d="M363.23,179.13c-1.27-.48-2.62-.82-3.87-1.36-.86-.36-1.7-.83-2.54-1.22-.26-.12-2-.93-1.77-1.66s2.74.5,5.67.46,3.49-2.06,2-2.46a28.18,28.18,0,0,1-7.77-3.28c-2.75-1.7-7.89-1.2-10-2.22-2.71-1.29-15.6-10.26-15.6-10.26s-3.23-11-4.92-17.48c-2.24-8.59-3.22-12.74-8.18-14.38a12.73,12.73,0,0,0-4.58-.76l-1.28,17s1.71,10.93,4.31,17.87c2.16,5.79,2.68,6.43,7.11,8.68,5,2.52,20.49,9.7,20.49,9.7,2.2,1.73,3.94,4.16,6.5,5.29a28.54,28.54,0,0,0,3.58,1.23,6.6,6.6,0,0,0,3.27.32,14.53,14.53,0,0,1,1.72-.46c.54,0,1.08.14,1.62.14a4.92,4.92,0,0,0,3.34-1.59c.76-.63,1.77-.63,2.63-1.1C366.85,180.49,364.18,179.49,363.23,179.13Z" style="fill:#ffa8a7"></path><path d="M310.93,123.88c2.42,0,5.61-1.81,10,1.81s4.22,7.93,5,12.67,3.8,18.51,3.8,18.51l10.94,7.75a5.41,5.41,0,0,0-4.76,3.11,12.13,12.13,0,0,0-.45,6.82s-13.14-5.56-15.82-7.12-4.22-3.2-6.63-10.66a88.82,88.82,0,0,1-3.27-15.57Z" style="fill:#263238"></path><path d="M352.77,174.82a11,11,0,0,0-1.4.08,6.48,6.48,0,0,1-5.66-2.81c-.1-.15-.19,0-.13.16a6.21,6.21,0,0,0,3.11,2.74,6.42,6.42,0,0,0,2.15.46,3,3,0,0,0,2-.4C352.9,175,352.86,174.83,352.77,174.82Z" style="fill:#f28f8f"></path></g><path d="M295.15,194c-12.39-9.16-12.32-18.67-13.08-36.95-.65-15.33-.42-26.94,3.65-29.11a80,80,0,0,1,11.07-4c4.17-.94,14.14,0,14.14,0h0c6.15,3.6,11.24,6.93,14.21,11.13,3.11,4.4,2.63,10.76-1,15.34l2,11.21s5.13,3,11.95,7.64c7.71,5.29,21.61,13.84,24,19.93s1.21,11.31-1.63,19.57c-5.28,9.74-22.74,12.9-28.72,12.62-.46-1.65-.39-3.15-1-5.46-.41-1.62.22-1.92-7.66-5.43A146.42,146.42,0,0,1,295.15,194Z" style="fill:#37474f"></path><path d="M348,198.26a23.41,23.41,0,0,1,1.89,5.28c.33,1.32.47,2.69.93,4,.09.26.24.56.52.61s.61-.3.67-.64a27.15,27.15,0,0,0,.51-6.92c-.47-5.19-3.53-9.11-7.46-12.29a21.71,21.71,0,0,0-9.26-4.4,1.06,1.06,0,0,0-.86.09c-.41.36,0,1,.34,1.42C339.59,189.7,345.21,192.89,348,198.26Z" style="fill:#263238"></path><path d="M293.53,107.16a25.49,25.49,0,0,1,3-4.25,21.53,21.53,0,0,1,2.74-2.66,17.74,17.74,0,0,1,7.2-3.44,18,18,0,0,1,4-.43c.23,0,2.79,3.35,3.79,1.62s-.08-4.43-1.78-6.6c-2.25-2.86-6.25-4.29-9.55-4.66a20.2,20.2,0,0,0-12.74,3c-3.53,2.19-9,8.87-5.06,19.76,1.46,4,6.26,8.24,6.26,8.24s0-3.07,0-3.92a10.11,10.11,0,0,1,.81-4A21.35,21.35,0,0,1,293.53,107.16Z" style="fill:#37474f"></path><path d="M285.13,92.52a2.51,2.51,0,0,1-.44-1.24,1.79,1.79,0,0,1,.85-1.71,2.91,2.91,0,0,1-1.53-3.7,4.13,4.13,0,0,1,1.46-1.67,3,3,0,0,1,2-.67,3.82,3.82,0,0,1,1.12-2.41c1.33-1.43,3.51-2.35,5.11-.71a3.1,3.1,0,0,1,2.07-1,3.83,3.83,0,0,1,3.16.75,4.17,4.17,0,0,1,1,3.27c.39-.41,1.1-.19,1.54.17A3,3,0,0,1,302.54,87c-.45,1.39-1.82,2.26-3.12,2.94a39.34,39.34,0,0,1-7.57,3,28.79,28.79,0,0,1-2.93.63,4.18,4.18,0,0,1-2.77-.07A2.68,2.68,0,0,1,285.13,92.52Z" style="fill:#37474f"></path><g id="freepik--Face--inject-16"><path d="M307.58,94.4a7.22,7.22,0,0,0,.88-.44,3.28,3.28,0,0,1,3,.2c3,1.62,3.48,5.86,3.07,8.93-.2,1.43.73,3.1.76,4.54.15,8-2.95,11.65-4.35,12.5s-3,1.16-5.81,1.07v3.3a12.48,12.48,0,0,1,2.67,9.1c-7.82-2.65-11.24-3.82-16.39-7.88l0-11.55s-1.42,1.59-4.12.15a5.74,5.74,0,0,1-2.05-7.68c1.08-1.76,4-2.87,5.38-.77.45.68.69,2,1.82,1.41a2.09,2.09,0,0,0,.93-1.64,11.81,11.81,0,0,0-.08-2,.32.32,0,0,1,0-.17.29.29,0,0,1,.18-.1,4.75,4.75,0,0,0,2.55-2,10.69,10.69,0,0,0,1.32-3,7.94,7.94,0,0,1,1-2.26,4.19,4.19,0,0,1,2.26-1.5,7.16,7.16,0,0,1,2.73-.16c.65.08,1.29.21,2,.25A5,5,0,0,0,307.58,94.4Z" style="fill:#ffa8a7"></path><path d="M291.45,124.85l-2.82,1.77a17,17,0,0,0,10.54,9.4c8.07,2.6,8.67-2.42,8.67-2.42s6.29,1.16,5.26-2.77-5.8-7.2-5.8-7.2l-2.13-.71v1.58a21.81,21.81,0,0,1,2.46,8.46A42.3,42.3,0,0,1,291.45,124.85Z" style="fill:#f0f0f0"></path><path d="M305.17,121.2c-3,0-10.48-1.81-11.63-6.64a6.31,6.31,0,0,0,2.34,5.27c3,2.6,9.29,3.09,9.29,3.09Z" style="fill:#f28f8f"></path><path d="M303.11,105.25a1.35,1.35,0,1,1-1.54-1.19A1.38,1.38,0,0,1,303.11,105.25Z" style="fill:#263238"></path><path d="M312.51,105.06a1.35,1.35,0,1,1-1.5-1.24A1.38,1.38,0,0,1,312.51,105.06Z" style="fill:#263238"></path><path d="M302.43,100.83l-3,1.71a1.65,1.65,0,0,1,.58-2.33A1.82,1.82,0,0,1,302.43,100.83Z" style="fill:#263238"></path><path d="M309.66,100.64l3.39.62a1.65,1.65,0,0,0-1.32-2A1.81,1.81,0,0,0,309.66,100.64Z" style="fill:#263238"></path><polygon points="305.92 103.55 306.5 111.61 310.93 110.12 305.92 103.55" style="fill:#f28f8f"></polygon><path d="M302.79,112.91v0c0,.15.19.32.28.42a3.93,3.93,0,0,0,2.59,1.14,3.29,3.29,0,0,0,.77,0c.1,0,.31-.1.18-.21a1.78,1.78,0,0,0-.54-.11,5.87,5.87,0,0,1-1.05-.22,6.58,6.58,0,0,1-1.86-1C303,112.83,302.8,112.7,302.79,112.91Z" style="fill:#b16668"></path></g></g><g id="freepik--arm--inject-16"><path d="M328.22,169.07c-2,.06-4,.29-6,.46a28.93,28.93,0,0,1-6.17-.06c-.08,0-.2-.05-.18-.14a.16.16,0,0,1,.07-.09,23,23,0,0,0,2.47-1.76,2.74,2.74,0,0,0,.92-2.71.54.54,0,0,0-.1-.2c-.15-.16-.42-.1-.63,0-.65.25-1.19.62-1.86.82a15.69,15.69,0,0,1-2.05.49,24.31,24.31,0,0,0-2.54.38,9.42,9.42,0,0,0-3.09,1.65,5.33,5.33,0,0,1-2.62,1.25c-2.17.34-3.94.17-8.48-.81-7.11-1.53-10.9-2.51-10.9-2.51l1.68-17.63c.82-9.81-.9-17.34-3.52-19.29a21.6,21.6,0,0,0-7.07,5c-2.39,3.07-2.89,5.36-3.92,15.58-.68,6.79-1.25,11-1.57,17.12-.49,9.56.32,10.15,8.73,11.5a95.52,95.52,0,0,0,16.57.85h0c2,0,14.66.87,16.78.59a8.58,8.58,0,0,0,4.91-2.23c.33-.33.63-.67.95-1a2.76,2.76,0,0,1,.85-.71c.27-.12.56-.2.82-.33a2.34,2.34,0,0,0,1.24-1.63c.25-1,1.34-1.2,2.17-1.45a48.09,48.09,0,0,0,5.24-1.67.22.22,0,0,0,.1-.09.25.25,0,0,0,0-.15C330.84,169.05,329.14,169,328.22,169.07Z" style="fill:#ffa8a7"></path><path d="M285.72,127.92c-4.18.84-6.44-.53-10.3,4.12s-1.24,12-1.7,15.41-1.92,17.45-1.92,22.1,1.1,7.4,4.35,8.46,18.32,1.85,23.27,1.41c0,0-1.32-1.64-1.12-5.31.27-5,2.32-5.42,2.32-5.42l-12.94-3.12s1.3-11.71,1.89-16.84S290,132.52,285.72,127.92Z" style="fill:#263238"></path><path d="M287.68,165.57c-3.28-.53-8.6.2-10.66,1.86,0,0,2.14-3.77,10.85-3.56Z"></path></g></g><path d="M275.38,203.26l31.86,16-.68-11.74,4.91-2.83c-.35-9.1-2.85-18.43-9.29-20.5-8.05-2.55-18.5-3.37-24.77-9.05s-6-21.27-5.25-30.21,3.13-22.84-4-27-13.94.47-13.94.47c-3,2-6.6,3.41-6.3,5.82a2.57,2.57,0,0,0,2.17,2.45L267.85,194A14.51,14.51,0,0,0,275.38,203.26Z" style="fill:#407BFF"></path><g style="opacity:0.30000000000000004"><path d="M275.38,203.26l31.86,16-.68-11.74,4.91-2.83c-.35-9.1-2.85-18.43-9.29-20.5-8.05-2.55-18.5-3.37-24.77-9.05s-6-21.27-5.25-30.21,3.13-22.84-4-27-13.94.47-13.94.47c-3,2-6.6,3.41-6.3,5.82a2.57,2.57,0,0,0,2.17,2.45L267.85,194A14.51,14.51,0,0,0,275.38,203.26Z"></path></g><path d="M263.45,126.26c2.86,3.42,4.34,8.86,3.81,22.22s-.31,24.14,4.91,30.69c6.21,7.76,27.46,14,27.46,14l8.3-3.8a10.42,10.42,0,0,0-5.75-5.13c-8.05-2.55-18.5-3.37-24.77-9.05s-6-21.27-5.25-30.21,3.13-22.84-4-27-13.94.47-13.94.47c-3,2-6.6,3.41-6.3,5.82a2.57,2.57,0,0,0,2.17,2.45C254.05,125.39,260.59,122.84,263.45,126.26Z" style="fill:#407BFF"></path><path d="M263.45,126.26c2.86,3.42,4.34,8.86,3.81,22.22s-.31,24.14,4.91,30.69c6.21,7.76,27.46,14,27.46,14l8.3-3.8a10.42,10.42,0,0,0-5.75-5.13c-8.05-2.55-18.5-3.37-24.77-9.05s-6-21.27-5.25-30.21,3.13-22.84-4-27-13.94.47-13.94.47c-3,2-6.6,3.41-6.3,5.82a2.57,2.57,0,0,0,2.17,2.45C254.05,125.39,260.59,122.84,263.45,126.26Z" style="opacity:0.1"></path><path d="M306.82,207.52l4.91-2.83c0-5.45-1.4-17.28-8.29-20.14-5.47-2.27-8.12,1.06-8.06,3.12.07,2.32,1.48,3.85,4.25,5.45C303.3,195.23,306.82,199,306.82,207.52Z" style="fill:#407BFF"></path></g></g><g id="freepik--character-2--inject-16"><g id="freepik--judge--inject-16"><path d="M181.31,301.11a4.44,4.44,0,0,0,.11,1,2.29,2.29,0,0,0,.9,1.39l0,0a2.64,2.64,0,0,0,2.77-.22,8.4,8.4,0,0,0,3.81-6.6,2.7,2.7,0,0,0-1.07-2.42h0l-.18-.11h0a2.4,2.4,0,0,0-1.62-.06,4.2,4.2,0,0,0-.94.41A8.41,8.41,0,0,0,181.31,301.11Z" style="fill:#455a64"></path><path d="M182.35,292.92a3.42,3.42,0,0,1,1.7-.52,2,2,0,0,1,1.07.3l.1.06,2.46,1.41a2.4,2.4,0,0,0-1.62-.06,4.2,4.2,0,0,0-.94.41,8.41,8.41,0,0,0-3.81,6.59,4.44,4.44,0,0,0,.11,1,2.29,2.29,0,0,0,.9,1.39L179.8,302l-.05,0-.21-.13-.06,0a2.82,2.82,0,0,1-.94-2.34A8.41,8.41,0,0,1,182.35,292.92Z" style="fill:#263238"></path><path d="M222.54,278.94a5.1,5.1,0,0,0,.11,1,2.29,2.29,0,0,0,.9,1.39l0,0a2.64,2.64,0,0,0,2.77-.21,8.41,8.41,0,0,0,3.82-6.6,2.69,2.69,0,0,0-1.08-2.42h0l-.18-.11h0a2.4,2.4,0,0,0-1.62-.06,4,4,0,0,0-.94.41A8.41,8.41,0,0,0,222.54,278.94Z" style="fill:#455a64"></path><path d="M223.58,270.75a3.48,3.48,0,0,1,1.7-.52,2,2,0,0,1,1.07.3l.1.05,2.46,1.42a2.4,2.4,0,0,0-1.62-.06,4,4,0,0,0-.94.41,8.41,8.41,0,0,0-3.81,6.59,5.1,5.1,0,0,0,.11,1,2.29,2.29,0,0,0,.9,1.39L221,279.87l0,0-.22-.13-.06,0a2.82,2.82,0,0,1-.94-2.34A8.41,8.41,0,0,1,223.58,270.75Z" style="fill:#263238"></path><path d="M215.19,309.77a4.35,4.35,0,0,1-.11,1,2.29,2.29,0,0,1-.9,1.4l0,0a2.64,2.64,0,0,1-2.77-.21,8.42,8.42,0,0,1-3.81-6.61,2.68,2.68,0,0,1,1.07-2.41h0l.18-.11h0a2.34,2.34,0,0,1,1.62-.06,4.34,4.34,0,0,1,.94.4A8.44,8.44,0,0,1,215.19,309.77Z" style="fill:#455a64"></path><path d="M214.15,301.57a3.51,3.51,0,0,0-1.7-.51,2,2,0,0,0-1.07.3l-.1.05-2.46,1.42a2.34,2.34,0,0,1,1.62-.06,4.34,4.34,0,0,1,.94.4,8.44,8.44,0,0,1,3.81,6.6,4.35,4.35,0,0,1-.11,1,2.29,2.29,0,0,1-.9,1.4l2.52-1.46.05,0,.21-.13.06,0a2.82,2.82,0,0,0,.94-2.34A8.44,8.44,0,0,0,214.15,301.57Z" style="fill:#263238"></path><path d="M242,296.66a5,5,0,0,1-.1,1,2.3,2.3,0,0,1-.91,1.4l0,0a2.64,2.64,0,0,1-2.77-.21,8.44,8.44,0,0,1-3.81-6.61,2.7,2.7,0,0,1,1.07-2.41h0l.19-.11h0a2.34,2.34,0,0,1,1.62-.06,4.08,4.08,0,0,1,.93.4A8.42,8.42,0,0,1,242,296.66Z" style="fill:#455a64"></path><path d="M240.91,288.46a3.5,3.5,0,0,0-1.69-.51,2.06,2.06,0,0,0-1.08.3l-.09.05-2.46,1.42a2.34,2.34,0,0,1,1.62-.06,4.08,4.08,0,0,1,.93.4,8.42,8.42,0,0,1,3.81,6.6,5,5,0,0,1-.1,1,2.3,2.3,0,0,1-.91,1.4l2.53-1.46,0,0,.22-.13.06,0a2.81,2.81,0,0,0,.93-2.34A8.42,8.42,0,0,0,240.91,288.46Z" style="fill:#263238"></path><path d="M190.22,280.58a5.19,5.19,0,0,1-.11,1,2.29,2.29,0,0,1-.9,1.39l0,0a2.64,2.64,0,0,1-2.77-.21,8.43,8.43,0,0,1-3.82-6.61,2.69,2.69,0,0,1,1.08-2.41h0l.18-.11h0a2.34,2.34,0,0,1,1.62-.06,4.34,4.34,0,0,1,.94.4A8.44,8.44,0,0,1,190.22,280.58Z" style="fill:#455a64"></path><path d="M189.18,272.38a3.57,3.57,0,0,0-1.7-.51,2,2,0,0,0-1.07.3l-.1.05-2.46,1.42a2.34,2.34,0,0,1,1.62-.06,4.34,4.34,0,0,1,.94.4,8.44,8.44,0,0,1,3.81,6.6,5.19,5.19,0,0,1-.11,1,2.29,2.29,0,0,1-.9,1.39l2.52-1.46,0,0,.22-.13.06,0A2.82,2.82,0,0,0,193,279,8.44,8.44,0,0,0,189.18,272.38Z" style="fill:#263238"></path><polygon points="212.97 272.52 226.58 268.62 226.58 271.52 212.97 279.38 212.97 272.52" style="fill:#ebebeb"></polygon><polygon points="212.97 272.52 211.63 271.7 225.28 267.97 226.58 268.62 212.97 272.52" style="fill:#f5f5f5"></polygon><polygon points="207.08 281.19 187.79 273.96 187.79 271.02 207.08 272.75 207.08 281.19" style="fill:#ebebeb"></polygon><polygon points="187.79 271.02 189.21 270.65 208.23 271.88 207.08 272.75 187.79 271.02" style="fill:#f5f5f5"></polygon><path d="M206.57,280.26c0,2.19,6.71,2.19,6.71,0V261.19h-6.71Z" style="fill:#fafafa"></path><path d="M211.59,275.3l3.7,24h-2.53l-3.45-24A4.1,4.1,0,0,0,211.59,275.3Z" style="fill:#f5f5f5"></path><polygon points="209.31 275.3 209.31 281.88 212.76 303.31 212.76 299.26 209.31 275.3" style="fill:#ebebeb"></polygon><rect x="212.76" y="299.26" width="2.52" height="4.06" style="fill:#e0e0e0"></rect><polygon points="208.16 281.68 183.28 294.73 183.28 290.71 208.16 275.32 208.16 281.68" style="fill:#ebebeb"></polygon><path d="M208.16,275.32a2.83,2.83,0,0,1-1.59-.72l-24.84,15.06,1.56,1Z" style="fill:#f5f5f5"></path><polygon points="183.28 294.73 183.28 290.71 181.73 289.66 181.73 293.55 183.28 294.73" style="fill:#e0e0e0"></polygon><polygon points="239.53 290.12 212.95 281.02 212.95 275.05 239.53 286.1 239.53 290.12" style="fill:#ebebeb"></polygon><path d="M213,275.05c.22-.06.31-.45.33-1l27,11.76-.78.32Z" style="fill:#f5f5f5"></path><polygon points="240.31 285.78 240.31 289.67 239.53 290.12 239.53 286.1 240.31 285.78" style="fill:#e0e0e0"></polygon><rect x="212.76" y="299.26" width="2.52" height="4.06" style="opacity:0.1"></rect><polygon points="183.28 294.73 183.28 290.71 181.73 289.66 181.73 293.55 183.28 294.73" style="opacity:0.1"></polygon><polygon points="240.31 285.78 240.31 289.67 239.53 290.12 239.53 286.1 240.31 285.78" style="opacity:0.1"></polygon><path d="M215.6,227.92H204.24V267.3c0,3.26,11.36,3.26,11.36,0Z" style="fill:#f0f0f0"></path><path d="M169.62,222.47l43.55-22.75s3.06-14.89-7.26-31.12c0,0,3.07-28.94-2.08-38.56-3.77-7.34-8.29-6.33-8.29-6.33L146.09,146Z" style="fill:#407BFF"></path><path d="M169.62,222.47l43.55-22.75s3.06-14.89-7.26-31.12c0,0,3.07-28.94-2.08-38.56-3.77-7.34-8.29-6.33-8.29-6.33L146.09,146Z" style="opacity:0.2"></path><path d="M195.54,123.71,146.09,146l1.63,5.28L201.8,126.9C198.61,123,195.54,123.71,195.54,123.71Z" style="fill:#407BFF"></path><path d="M195.73,170a.9.9,0,0,0,1.48.64,2.34,2.34,0,0,0,1.11-2.14c-.1-.77-.77-1.05-1.48-.64A2.33,2.33,0,0,0,195.73,170Z" style="fill:#fff;opacity:0.4"></path><path d="M188.19,174.34a.9.9,0,0,0,1.48.64,2.33,2.33,0,0,0,1.11-2.13.91.91,0,0,0-1.48-.65A2.34,2.34,0,0,0,188.19,174.34Z" style="fill:#fff;opacity:0.4"></path><path d="M180.65,178.7a.9.9,0,0,0,1.48.64,2.34,2.34,0,0,0,1.11-2.14c-.1-.77-.77-1-1.48-.64A2.33,2.33,0,0,0,180.65,178.7Z" style="fill:#fff;opacity:0.4"></path><path d="M173.11,183.05c.1.77.77,1,1.48.64a2.33,2.33,0,0,0,1.11-2.14.9.9,0,0,0-1.48-.64A2.34,2.34,0,0,0,173.11,183.05Z" style="fill:#fff;opacity:0.4"></path><path d="M262.93,218.28v2.4a8.7,8.7,0,0,1-4.24,7l-48.54,25.48a9.69,9.69,0,0,1-8.38-.17l-28-16.17a9.15,9.15,0,0,1-4.15-7.18v-2.4a8.67,8.67,0,0,1,4.25-7l45.94-24a10.53,10.53,0,0,1,8.52-.07l30.32,15.17A8.48,8.48,0,0,1,262.93,218.28Z" style="fill:#407BFF"></path><path d="M262.93,218.28v2.4a8.7,8.7,0,0,1-4.24,7l-48.54,25.48a9.69,9.69,0,0,1-8.38-.17l-28-16.17a9.15,9.15,0,0,1-4.15-7.18v-2.4a8.67,8.67,0,0,1,4.25-7l45.94-24a10.53,10.53,0,0,1,8.52-.07l30.32,15.17A8.48,8.48,0,0,1,262.93,218.28Z" style="opacity:0.2"></path><path d="M210.15,241.19l48.54-25.47c2.34-1.23,2.32-3.19,0-4.37l-30.32-15.17a10.53,10.53,0,0,0-8.52.07l-45.94,24c-2.35,1.23-2.39,3.29-.1,4.61l28,16.17A9.66,9.66,0,0,0,210.15,241.19Z" style="fill:#407BFF"></path><path d="M207,254a9.41,9.41,0,0,1-5.26-1l-28-16.16a9.17,9.17,0,0,1-4.14-7.18v-2.41a8.75,8.75,0,0,1,3.63-6.63c-1.73,1.24-1.56,3,.51,4.24l28,16.17a9,9,0,0,0,4.28,1Z" style="opacity:0.2"></path><path d="M207,254a9.41,9.41,0,0,1-5.26-1l-28-16.16a9.17,9.17,0,0,1-4.14-7.18v-2.41a8.75,8.75,0,0,1,3.63-6.63c-1.73,1.24-1.56,3,.51,4.24l28,16.17a9,9,0,0,0,4.28,1Z" style="opacity:0.2"></path><path d="M195.54,123.71s7.16-4.85,14.71-.49,5.05,19,4.24,28.45-1.07,25.91,5.54,31.89,28.27-2,37.72-2l-8.34,30.73c-9.18-5-23.88-10.15-36.24-12.6,0,0,.4-19.15-8.38-30.09,0,0,3.24-7.66,1.12-23C204,132.41,201.3,127,195.54,123.71Z" style="fill:#407BFF"></path><path d="M195.54,123.71s7.16-4.85,14.71-.49,5.05,19,4.24,28.45-1.07,25.91,5.54,31.89,28.27-2,37.72-2l-8.34,30.73c-9.18-5-23.88-10.15-36.24-12.6,0,0,.4-19.15-8.38-30.09,0,0,3.24-7.66,1.12-23C204,132.41,201.3,127,195.54,123.71Z" style="opacity:0.1"></path><path d="M249.41,212.32c-.42-2.75-2.16-18.56.78-25.44,2.57-6,9.3-6.34,11.42-3.78s.22,5.68-3.15,10.07c-2.84,3.71-3.86,7.17-3.86,16.15Z" style="fill:#407BFF"></path><g id="freepik--character--inject-16"><g id="freepik--bottom--inject-16"><polygon points="222.38 274.35 226.98 275.25 227.32 271.97 223.7 272.69 222.38 274.35"></polygon><path d="M222.68,265.23s-1.65,2.34-2.16,3.09,1.29,5.14,1.86,6l1.32-1.66a15.88,15.88,0,0,1,.08,4.06c0,1.48-.52,4,.34,6.52,1.28,3.67,4.62,7.2,8.61,9.86s6.94,3.11,8.65,2.94a3.18,3.18,0,0,0,3.06-2.19C244.79,292.66,222.68,265.23,222.68,265.23Z" style="fill:#263238"></path><path d="M238.71,263.67l.92-1.39c.76.45-.41,2.55-.42,5a42.79,42.79,0,0,0,1.22,10.88c1.81,6.32,4,11,4.84,13.8,1.07,3.8-5.5,4.73-11.93.25-3.19-2.23-8-7.51-8.48-10.48s.42-6.64,0-8.88-2.4-5.41-2.16-7.64c.13-1.22,1.73-3.28,3.16-5s3-4.18,3.83-3.37l-.48.93c-.07,1,.08,2.81,2.47,4.9C232.85,263.75,236.75,266.32,238.71,263.67Z" style="fill:#37474f"></path><path d="M233.76,264.09c1.34.68,3,1.1,4.2.28l0,0a3.79,3.79,0,0,0-.81,3.24c.33,2.13,1.79,16.59,1.79,16.59s-2-12.42-2.4-14.77c-.6-3.48-1.07-4.14-2.84-5.32Z" style="opacity:0.15"></path><path d="M233.81,267.72a.47.47,0,0,1-.67.08.48.48,0,1,1,.67-.08Z" style="opacity:0.15"></path><path d="M234.44,271.11a.49.49,0,0,1-.67.08.48.48,0,1,1,.58-.76A.49.49,0,0,1,234.44,271.11Z" style="opacity:0.15"></path><path d="M235.06,274.49a.48.48,0,0,1-.75-.59.48.48,0,1,1,.75.59Z" style="opacity:0.15"></path><path d="M235.69,277.87a.48.48,0,1,1-.76-.58.48.48,0,1,1,.76.58Z" style="opacity:0.15"></path><path d="M236.31,281.26a.48.48,0,0,1-.67.08.48.48,0,0,1,.59-.75A.48.48,0,0,1,236.31,281.26Z" style="opacity:0.15"></path><path d="M233.32,267.58a.14.14,0,0,1-.07-.11.18.18,0,0,1,.14-.23,7.88,7.88,0,0,1,5.73,1h0a.19.19,0,0,1,0,.27.2.2,0,0,1-.27,0,7.66,7.66,0,0,0-5.42-1A.18.18,0,0,1,233.32,267.58Z" style="fill:#263238"></path><path d="M234,271a.19.19,0,0,1-.07-.11.18.18,0,0,1,.14-.23,7.88,7.88,0,0,1,5.73,1h0a.18.18,0,0,1,.05.26.19.19,0,0,1-.27.05,7.6,7.6,0,0,0-5.42-1A.21.21,0,0,1,234,271Z" style="fill:#263238"></path><path d="M234.57,274.35a.19.19,0,0,1-.07-.11.18.18,0,0,1,.14-.23,7.88,7.88,0,0,1,5.73,1h0a.18.18,0,0,1,0,.26.19.19,0,0,1-.27,0,7.66,7.66,0,0,0-5.42-1A.18.18,0,0,1,234.57,274.35Z" style="fill:#263238"></path><path d="M235.2,277.74a.19.19,0,0,1,.07-.35,7.85,7.85,0,0,1,5.72,1h0a.2.2,0,0,1,0,.27.19.19,0,0,1-.27.05,7.6,7.6,0,0,0-5.42-1A.19.19,0,0,1,235.2,277.74Z" style="fill:#263238"></path><path d="M235.82,281.12a.19.19,0,0,1-.07-.11.18.18,0,0,1,.14-.23,7.88,7.88,0,0,1,5.73,1h0a.18.18,0,0,1,0,.26.19.19,0,0,1-.27.05,7.66,7.66,0,0,0-5.42-1A.21.21,0,0,1,235.82,281.12Z" style="fill:#263238"></path><polygon points="234.2 298.77 238.9 297.49 237.7 294.28 234.67 296.61 234.2 298.77"></polygon><path d="M230.28,290.14s-.46,2.94-.58,3.86,3.56,4.2,4.5,4.77l.47-2.16a17.22,17.22,0,0,1,1.93,3.74c.64,1.4,1.38,4,3.31,5.91,2.88,2.84,7.61,4.59,12.55,5.24s7.89-.3,9.4-1.24a3.28,3.28,0,0,0,1.84-3.45C263.47,305.52,230.28,290.14,230.28,290.14Z" style="fill:#263238"></path><path d="M244.49,281.32l.22-1.71c.92.06.79,2.55,1.92,4.85a44.1,44.1,0,0,0,6.13,9.58c4.59,5,8.8,8.35,10.84,10.63,2.74,3-2.94,6.92-11,5.7-4-.6-10.93-3.3-12.7-5.86s-2.66-6.37-4.1-8.25-4.72-3.93-5.53-6.12c-.44-1.2.11-3.86.65-6.1.5-2.07.87-5.27,2-4.9l0,1.09c.4,1,1.37,2.57,4.56,3.43C239.08,284.08,243.88,284.68,244.49,281.32Z" style="fill:#37474f"></path><path d="M240.08,284c1.55,0,3.26-.34,4-1.67l0-.05a3.93,3.93,0,0,0,.73,3.4c1.28,1.83,9.29,14.62,9.29,14.62s-7.57-10.64-9-12.65c-2.15-3-2.88-3.36-5.08-3.65Z" style="fill:#263238"></path><path d="M241.8,287.34a.5.5,0,1,1-.39-.59A.51.51,0,0,1,241.8,287.34Z" style="opacity:0.15"></path><path d="M243.93,290.21a.5.5,0,0,1-.59.38A.5.5,0,0,1,243,290a.5.5,0,1,1,1,.21Z" style="opacity:0.15"></path><path d="M246.07,293.07a.49.49,0,0,1-.59.38.48.48,0,0,1-.38-.58.49.49,0,0,1,.58-.39A.51.51,0,0,1,246.07,293.07Z" style="opacity:0.15"></path><path d="M248.2,295.93a.49.49,0,0,1-.58.39.51.51,0,0,1-.39-.59.49.49,0,0,1,.59-.38A.48.48,0,0,1,248.2,295.93Z" style="opacity:0.15"></path><path d="M250.34,298.8a.49.49,0,0,1-.59.38.5.5,0,0,1,.21-1A.5.5,0,0,1,250.34,298.8Z" style="opacity:0.15"></path><path d="M241.27,287.44a.25.25,0,0,1-.12-.07.2.2,0,0,1,0-.28,8.19,8.19,0,0,1,5.8-1.69h0a.2.2,0,0,1,.16.23.21.21,0,0,1-.23.17,7.91,7.91,0,0,0-5.49,1.6A.22.22,0,0,1,241.27,287.44Z" style="fill:#263238"></path><path d="M243.41,290.29a.21.21,0,0,1-.12-.07.2.2,0,0,1,0-.28,8.15,8.15,0,0,1,5.8-1.68h0a.2.2,0,1,1-.07.39,8,8,0,0,0-5.49,1.6A.18.18,0,0,1,243.41,290.29Z" style="fill:#263238"></path><path d="M245.55,293.17a.2.2,0,0,1-.12-.08.2.2,0,0,1,0-.28,8.18,8.18,0,0,1,5.8-1.68h0a.2.2,0,0,1,.16.23.2.2,0,0,1-.23.17,7.89,7.89,0,0,0-5.48,1.59A.25.25,0,0,1,245.55,293.17Z" style="fill:#263238"></path><path d="M247.68,296a.21.21,0,0,1-.12-.07.2.2,0,0,1,0-.28,8.19,8.19,0,0,1,5.8-1.69h0a.2.2,0,0,1-.07.4,7.91,7.91,0,0,0-5.49,1.6A.18.18,0,0,1,247.68,296Z" style="fill:#263238"></path><path d="M249.82,298.89a.19.19,0,0,1-.12-.07.2.2,0,0,1,0-.28,8.13,8.13,0,0,1,5.8-1.68h0a.21.21,0,0,1,.17.23.2.2,0,0,1-.23.16,8,8,0,0,0-5.49,1.6A.19.19,0,0,1,249.82,298.89Z" style="fill:#263238"></path><path d="M247.93,260.39s4.28-10.12,6.36-15.21c3.49-8.55,5.61-14.86,4.84-19-1-5.54-6.42-9.75-15.45-17.12-8-6.52-19.56-15.78-19.56-15.78l-46.26.59c.74,6.13-.35,12.09,2.31,19.18,2.35,6.25,5.59,11,17.67,18.16,8.56,5.06,18.59,10.76,20.76,12.18,2.74,1.8,5.33,3.24,6.17,7.93.79,4.46.51,7,2.79,18.38,2.52,12.55,3.35,14.2,3.35,14.2s6.32,7.14,17.58.6C248.49,284.52,248.45,274.51,247.93,260.39Z" style="fill:#455a64"></path><path d="M247.77,259.18c-1.1-15.09-1.1-19.19-4.47-24.88-3.13-5.28-26.15-23.35-26.85-23.9,0,0,4.54-2.46,7.21-9.33-.21,5.61-2.71,8.14-3.52,9.52,3.41,2.82,11.14,8.8,14.6,11.83,4.35,3.81,10.47,8,11.93,13.88C247.75,240.68,247.77,249.33,247.77,259.18Z" style="fill:#37474f"></path></g><g id="freepik--top--inject-16"><path d="M264.86,147c2.51-.16,6.21-.73,8.19.67s2.07,2.2,2.07,2.2l-6.65,5.22Z" style="fill:#af6152"></path><path d="M259.32,150.43c-1.77,1.59-13.54,11.61-17.84,14.62l7.16,9.52c3.91-3.94,9.66-10.31,12.84-11.91,3.86,1.17,5.33-.66,7.61-.33l-1.19-13.76S261.81,148.18,259.32,150.43Z" style="fill:#c8856a"></path><path d="M261.17,168.81h0a1.39,1.39,0,0,1-.79-1.81l11.83-30.09,2.6,1L263,168A1.39,1.39,0,0,1,261.17,168.81Z"></path><path d="M270.49,124.74a4,4,0,0,0-3.93.83A12.53,12.53,0,0,0,262,136a4,4,0,0,0,2,3.46l2.16,1a4,4,0,0,0,3.94-.82,12.53,12.53,0,0,0,4.58-10.38c-.19-1.8-1-3-2.05-3.46Z" style="fill:#37474f"></path><path d="M268.71,126.52c2.92-2.14,5.6-1,6,2.64a12.53,12.53,0,0,1-4.58,10.38c-2.92,2.14-5.6,1-6-2.64A12.53,12.53,0,0,1,268.71,126.52Z" style="fill:#263238"></path><path d="M272.39,126.6a3.51,3.51,0,0,0-3.47.73,11.05,11.05,0,0,0-4.05,9.17,3.51,3.51,0,0,0,1.8,3.06c.32.14,13.55,6,13.86,6.13A3.54,3.54,0,0,0,284,145a11.09,11.09,0,0,0,4.05-9.17,3.51,3.51,0,0,0-1.81-3.07Z" style="fill:#407BFF"></path><path d="M272.39,126.6a3.51,3.51,0,0,0-3.47.73,11.05,11.05,0,0,0-4.05,9.17,3.51,3.51,0,0,0,1.8,3.06c.32.14,13.55,6,13.86,6.13A3.54,3.54,0,0,0,284,145a11.09,11.09,0,0,0,4.05-9.17,3.51,3.51,0,0,0-1.81-3.07Z" style="fill:#fff;opacity:0.30000000000000004"></path><path d="M286.24,142.53l-21.07-9.31a8.89,8.89,0,0,0-.3,3.28,3.51,3.51,0,0,0,1.8,3.06c.33.14,13.55,6,13.86,6.13A3.54,3.54,0,0,0,284,145,9.14,9.14,0,0,0,286.24,142.53Z" style="fill:#407BFF;opacity:0.6000000000000001"></path><path d="M284.47,130.92c-1.08-.48-2.47-.24-3.93.82A12.54,12.54,0,0,0,276,142.12a4,4,0,0,0,2.05,3.47l2.15.95c1.08.48,2.48.24,3.94-.82a12.54,12.54,0,0,0,4.58-10.38,4,4,0,0,0-2.05-3.47Z" style="fill:#37474f"></path><path d="M282.69,132.69c2.92-2.13,5.6-.95,6,2.65a12.54,12.54,0,0,1-4.58,10.38c-2.92,2.13-5.6.95-6-2.65A12.54,12.54,0,0,1,282.69,132.69Z" style="fill:#455a64"></path><path d="M271.15,152.76a3.21,3.21,0,0,0,.94-1l2.19-3a3.19,3.19,0,0,1,.92,1.46,7.16,7.16,0,0,1,.07,2.68c-.31,2.73-1.22,7.48-3.15,8.68" style="fill:#af6152"></path><path d="M254.44,154.62c3-2.82,5.34-5.63,7.54-6.9s4.65-.67,7.45.61a13.88,13.88,0,0,0,5.14,1.44c.22.2-.46,1.93-1.57,2.28a10,10,0,0,1-4.36-.06c-3.38-.48-1.22,4-6.2,6.67C260.7,160.87,254.44,154.62,254.44,154.62Z" style="fill:#c8856a"></path><path d="M272.12,161.52c-1.93,1.2-5.46.91-6.64,0a3.45,3.45,0,0,1-1.05-1.5c-.19-.58-.05-1.18-.25-1.78-.1-.3-.24-.58-.32-.89a1.18,1.18,0,0,1,.06-.92c.17-.3.53-.48.65-.81a1,1,0,0,0,0-.6c-.09-.33-.27-.63-.35-.95a1,1,0,0,1,.2-.95,1.22,1.22,0,0,1,.82-.2,26.27,26.27,0,0,1,3.2.32,4.69,4.69,0,0,0,2.71-.44" style="fill:#af6152"></path><path d="M264.63,156.17c-1.79,2.37-4.43,1.73-6.19,1,0,0,2.4,1.83,4.55,1.49l-1,4.21Z" style="fill:#af6152"></path><path d="M216.63,163.74l-.75-24c5.72,1.12,7.49,3.11,11.35,9.14,2.16,3.36,7,10.69,11.6,17.35l12.35-9.49s5.6,4.57,6.83,9.4c0,0-8.89,11.54-17,16.52-3.13,1.93-5.93,3.07-10.35-1.59A212.07,212.07,0,0,1,216.63,163.74Z" style="fill:#263238"></path><path d="M253.5,165.89a28.67,28.67,0,0,0-2.11-2.56,9.24,9.24,0,0,0-2.75-2.19c-.24-.1-.39.15-.19.32a26.48,26.48,0,0,1,4.46,4.76,18.46,18.46,0,0,1,1.56,2.51c.08.15.15.31.23.47l.51-.48A15.42,15.42,0,0,0,253.5,165.89Z"></path><path d="M238.83,166.19c-2.62,1.92-5.15,5.5-5.47,8.26,0-5.26,1.67-7.24,4.6-9.53Z"></path><g id="freepik--Chest--inject-16"><path d="M231.17,197.21a17.5,17.5,0,0,1-6-11.78c-.43-5.34-1.09-14.59-2-30-.59-10.65-4.83-13.57-7.37-15.69l-10-2.5-9.12-1.11-6.18,2L179.07,143s-4.18,6.1-2.36,16.52c1.43,8.18,1.13,11.51,1,20-.16,11,0,20.12,0,20.12,0,9.08,1.09,15.92,6,21.82s18.48,13.43,24.6,16.75,11.34,6.22,13.42,9.09a13.21,13.21,0,0,1,2.09,6.86s6.78,2.72,19.12-2.5,14.43-12,14.43-12A58.68,58.68,0,0,0,260,229.41c.89-5.51-2.36-10.22-7.73-14.88C248.34,211.08,237.92,203.09,231.17,197.21Z" style="fill:#37474f"></path></g><g id="freepik--Head--inject-16"><path d="M214.54,104c-2.2-3.86-6-6.18-12.51-6-8,.26-12.2,4.07-12.83,7.31h0a5.66,5.66,0,0,0-3.05,2.79c-.79,1.43-1.38,4.06.53,11.64a30.54,30.54,0,0,0,3.46,8.4,3.74,3.74,0,0,0,2.13,1.77l0-5.8-.17-2.31s2.85-.19,3-8.12c0-1.08.15-2,.13-2.68l19.9,1.7S216.74,107.89,214.54,104Z" style="fill:#e0e0e0"></path><path d="M193.06,142.76s9.26,10.68,14.18,13.59c3.72-4,3.22-15,3.22-15Z" style="fill:#e0e0e0"></path><path d="M187.19,126.91c2.25,1.21,4.39-.83,4.39-.83l.21,12s.19,2.31,3.83,4.41c5.16,3,8.44,3.43,10.62,6.55,1.78-5.12,2.67-7.7-.59-11.67l.06-3.22a19.57,19.57,0,0,0,4.35-.29c3-.53,4.52-2.57,5.17-5.64a42.21,42.21,0,0,0-.3-17.26,6.13,6.13,0,0,0-2.13-3.61c-3.47-2.72-8.74-.27-13.22,1.38-1.86.68-5.51.76-6.68.18,1.52,1.74,1.8,6,.83,10.29-.34,1.48-.86,1.77-1.18,1.75-1.29,0-1.74-1.65-2.54-2.52a3.34,3.34,0,0,0-5.23,1.09A5.5,5.5,0,0,0,187.19,126.91Z" style="fill:#c8856a"></path><path d="M205.71,134.11c-4.34-.33-7.39-1.14-9-2.45a15.31,15.31,0,0,1-3.61-4.69s.57,4.11,2.92,6.05,5.16,3,9.69,3.13Z" style="fill:#af6152"></path><path d="M201.75,112.77,199,114.49a1.68,1.68,0,0,1,.52-2.27A1.57,1.57,0,0,1,201.75,112.77Z" style="fill:#263238"></path><path d="M200.7,116.56a1.32,1.32,0,0,0,1.33,1.29,1.31,1.31,0,1,0-1.33-1.29Z" style="fill:#263238"></path><path d="M210.42,112.39l3,1.18a1.68,1.68,0,0,0-.93-2.13A1.57,1.57,0,0,0,210.42,112.39Z" style="fill:#263238"></path><path d="M212.78,116.22a1.31,1.31,0,0,1-2.61-.14,1.31,1.31,0,1,1,2.61.14Z" style="fill:#263238"></path><path d="M206.2,114.43l.91,8.32,4.42-1.53A19.52,19.52,0,0,0,206.2,114.43Z" style="fill:#af6152"></path><path d="M204.85,125l3.47.7a1.73,1.73,0,0,1-2,1.44A1.85,1.85,0,0,1,204.85,125Z" style="fill:#af6152"></path><path d="M205.27,125.54a3.09,3.09,0,0,0-.43,0,1.83,1.83,0,0,0,1.43,1.57,1.57,1.57,0,0,0,.57,0A1.63,1.63,0,0,0,205.27,125.54Z" style="fill:#f28f8f"></path></g><g id="freepik--Tie--inject-16"><path d="M208.13,148.11s1.78-3.83,1.7-5.3l-2.5-2.33-.44,6.13Z" style="fill:#407BFF"></path><path d="M208.13,148.11s1.78-3.83,1.7-5.3l-2.5-2.33-.44,6.13Z" style="opacity:0.2"></path><polygon points="204.81 146.96 200.63 144.4 197.36 146.84 203.74 149.71 204.81 146.96" style="fill:#407BFF"></polygon><polygon points="204.81 146.96 200.63 144.4 197.36 146.84 203.74 149.71 204.81 146.96" style="opacity:0.2"></polygon><path d="M205.31,177.84c-.31-13.06.37-23,0-26.18l2.2-.32c1.73,3.73,7.21,14.81,7.53,23.83.27,3.14-1.37,10.35-3.49,10.53S205.36,179.76,205.31,177.84Z" style="fill:#407BFF"></path><path d="M205.31,177.84c-.31-13.06.37-23,0-26.18l2.2-.32c1.73,3.73,7.21,14.81,7.53,23.83.27,3.14-1.37,10.35-3.49,10.53S205.36,179.76,205.31,177.84Z" style="fill:#fff;opacity:0.1"></path><path d="M207.71,151.81l-.22-.47h0l-2.2.32h0c0,.27.05.54.07,1A3.88,3.88,0,0,0,207.71,151.81Z" style="opacity:0.2"></path><path d="M204.74,146.65a9.75,9.75,0,0,1,2.09-.19,5,5,0,0,1,1.3,1.65,7.67,7.67,0,0,1-.64,3.23,2.68,2.68,0,0,1-2.2.32,4.63,4.63,0,0,1-1.7-2A4.17,4.17,0,0,1,204.74,146.65Z" style="fill:#407BFF"></path><path d="M204.74,146.65a9.75,9.75,0,0,1,2.09-.19,5,5,0,0,1,1.3,1.65,7.67,7.67,0,0,1-.64,3.23,2.68,2.68,0,0,1-2.2.32,4.63,4.63,0,0,1-1.7-2A4.17,4.17,0,0,1,204.74,146.65Z" style="fill:#fff;opacity:0.1"></path><path d="M204.78,146.64c-.07,0-.15.18-.22.19-1.58-.77-1.84-1-2.25-.9-.76.25-2.46,3.56-2.87,4.63s-.33,1-1.8.16a25.33,25.33,0,0,1-6.72-6,17.75,17.75,0,0,1-2.77-5.77,21.39,21.39,0,0,0,1.72-2.45c.85-1.7.91-2.48,1.86-2.37l0,1.15c.22,1.44,2.5,2.77,4.59,4.43s5.43,3.18,6.23,3.89A15.39,15.39,0,0,1,204.78,146.64Z" style="fill:#f0f0f0"></path><path d="M212.18,147.56c-.21.59-2.27-3.94-3.19-3.8-.44.05-1.39,1.35-2.16,2.7h-.63a14.43,14.43,0,0,0,.81-3.56c.12-1.57-1.36-5.58-1.36-5.58a17.55,17.55,0,0,1,0-1.78c1.56.29,2.51,2.06,3.52,3.14s2.29,2.24,2.61,3.71A15.57,15.57,0,0,1,212.18,147.56Z" style="fill:#f0f0f0"></path></g><path d="M181.79,141.84c-5.79,1.64-10.46,3.88-12.13,9.33s-3.64,18.63-4.81,26.58c-1,6.81-.51,12.92,1.38,15.66l13.58-7.32,4.73-21.61S187.33,148.14,181.79,141.84Z" style="fill:#263238"></path><path d="M180.13,175.75c-1,1.78-2.35,2.56-5.22,4.26-2.68,1.58-5.81,3.13-7.21,6.33.22-2.86,1.63-4.4,4.94-6.69s8.2-5.11,8.2-5.11Z"></path><path d="M180.13,175.75c-1,1.78-2.35,2.56-5.22,4.26-2.68,1.58-5.81,3.13-7.21,6.33-1.23,2.82-2.63,5.21-1.47,7.07.81,1.27,4.81,1.75,8.5,1.14s5.87-3.11,9.36-6.12c3-2.59,4.13-3.65,4.13-3.65Z" style="fill:#263238"></path><path d="M185.35,177.83c-1.5-1.11-1.94-2.41-4-3.22s-3.31-.59-5.53-1.33-4-1-5.45-.29-1.1,1.59.18,2.15,3.43,1.23,5,2,3,1.18,3.27,2.94a78.49,78.49,0,0,1,.63,8.46c.07,3-.16,5.49.11,5.78s1.56.24,2.09-1.53.64-7.94.64-7.94,1.2,4.09,1.87,6.93,1.09,5,1.26,5.63,2.14-.18,2.15-2.39a69,69,0,0,0-1.39-8.6l3.51,4.41c1.37,1.74,3.11,4.12,3.65,4.7s1.66-.76,1.09-2.44-3.41-5.57-3.41-5.57,3.09,2.4,3.6,2.6,1.9-.23,1.12-2.07c-.51-1.22-1.45-1.91-4-4s-2.64-3.16-3.48-4.19C187.12,178.52,186.44,178.64,185.35,177.83Z" style="fill:#c8856a"></path><path d="M180.17,179.63c2.28.63,4.23-.65,4.44-1.22C184.69,179.9,181.89,181.2,180.17,179.63Z" style="fill:#af6152"></path><path d="M195.9,189.19a1,1,0,0,1-1.36.11c-.61-.37-2.16-1.66-2.87-2.26l-3.14-2.73,2.42,3.25s3.09,2.4,3.6,2.6A1.06,1.06,0,0,0,195.9,189.19Z" style="fill:#af6152"></path><path d="M216,122a2.59,2.59,0,0,1-1.94,2.13c-1.82.56-2.49-.57-6.43-.8-3-.17-3.58.27-8.21.4s-5.46-5.46-5.17-7.56l-4.2,2.23c1.12,2.19,1.18,5.27,2.72,8.78,2.67,6,6.65,7.07,10.16,7.53s7.11.86,11-1.65C217,131.09,216,122.59,216,122Zm-6,8.24c-1.77.27-5.32.26-6.65-.32s-1.11-2.49-.54-4,2.32-1.69,4.71-1.49c2.54.23,3.84.77,4,1.83S211.75,130,210,130.22Z" style="fill:#e0e0e0"></path></g></g><path d="M167.55,235.93l33.62,16.88-.72-12.38,5.18-3c-.37-9.6-3-19.45-9.8-21.63-8.5-2.69-19.53-3.56-26.14-9.55s-6.35-22.44-5.54-31.89,3.3-24.09-4.25-28.45-14.7.49-14.7.49c-3.23,2.09-7,3.6-6.66,6.14a2.74,2.74,0,0,0,2.3,2.59l18.76,71A15.35,15.35,0,0,0,167.55,235.93Z" style="fill:#407BFF"></path><g style="opacity:0.30000000000000004"><path d="M167.55,235.93l33.62,16.88-.72-12.38,5.18-3c-.37-9.6-3-19.45-9.8-21.63-8.5-2.69-19.53-3.56-26.14-9.55s-6.35-22.44-5.54-31.89,3.3-24.09-4.25-28.45-14.7.49-14.7.49c-3.23,2.09-7,3.6-6.66,6.14a2.74,2.74,0,0,0,2.3,2.59l18.76,71A15.35,15.35,0,0,0,167.55,235.93Z"></path></g><path d="M155,154.68c3,3.61,4.57,9.35,4,23.45s-.33,25.47,5.19,32.38c6.54,8.19,29,14.72,29,14.72l8.77-4a11,11,0,0,0-6.07-5.42c-8.5-2.69-19.53-3.56-26.15-9.54s-6.34-22.45-5.54-31.89,3.3-24.1-4.24-28.46-14.71.49-14.71.49c-3.22,2.09-7,3.61-6.65,6.15a2.71,2.71,0,0,0,2.29,2.58C145.05,153.76,152,151.07,155,154.68Z" style="fill:#407BFF"></path><path d="M155,154.68c3,3.61,4.57,9.35,4,23.45s-.33,25.47,5.19,32.38c6.54,8.19,29,14.72,29,14.72l8.77-4a11,11,0,0,0-6.07-5.42c-8.5-2.69-19.53-3.56-26.15-9.54s-6.34-22.45-5.54-31.89,3.3-24.1-4.24-28.46-14.71.49-14.71.49c-3.22,2.09-7,3.61-6.65,6.15a2.71,2.71,0,0,0,2.29,2.58C145.05,153.76,152,151.07,155,154.68Z" style="opacity:0.1"></path><path d="M200.73,240.43l5.18-3c0-5.74-1.48-18.23-8.75-21.25-5.78-2.4-8.57,1.12-8.5,3.3.07,2.44,1.56,4.07,4.48,5.75C197,227.46,200.73,231.45,200.73,240.43Z" style="fill:#407BFF"></path><path d="M200.73,240.43l5.18-3c0-5.74-1.48-18.23-8.75-21.25-5.78-2.4-8.57,1.12-8.5,3.3.07,2.44,1.56,4.07,4.48,5.75C197,227.46,200.73,231.45,200.73,240.43Z" style="fill:#407BFF"></path></g></g><g id="freepik--character-1--inject-16"><g id="freepik--judge--inject-16"><path d="M97.9,376.86a4.62,4.62,0,0,0,.1.95,2.19,2.19,0,0,0,.86,1.32l0,0a2.48,2.48,0,0,0,2.62-.2,8,8,0,0,0,3.62-6.26,2.57,2.57,0,0,0-1-2.29h0l-.17-.1h0a2.29,2.29,0,0,0-1.54-.06,4.17,4.17,0,0,0-.89.38A8,8,0,0,0,97.9,376.86Z" style="fill:#455a64"></path><path d="M98.89,369.1a3.26,3.26,0,0,1,1.61-.49,1.84,1.84,0,0,1,1,.29l.1.05,2.33,1.34a2.29,2.29,0,0,0-1.54-.06,4.17,4.17,0,0,0-.89.38,8,8,0,0,0-3.61,6.25,4.62,4.62,0,0,0,.1.95,2.19,2.19,0,0,0,.86,1.32l-2.39-1.38,0,0-.21-.13-.06,0a2.64,2.64,0,0,1-.88-2.21A8,8,0,0,1,98.89,369.1Z" style="fill:#263238"></path><path d="M137,355.85a4.62,4.62,0,0,0,.1.95,2.19,2.19,0,0,0,.86,1.32l0,0a2.48,2.48,0,0,0,2.62-.2,8,8,0,0,0,3.62-6.26,2.57,2.57,0,0,0-1-2.29h0l-.17-.1h0a2.29,2.29,0,0,0-1.54-.06,4,4,0,0,0-.89.39A8,8,0,0,0,137,355.85Z" style="fill:#455a64"></path><path d="M138,348.09a3.26,3.26,0,0,1,1.61-.49,1.84,1.84,0,0,1,1,.29l.1.05,2.33,1.34a2.29,2.29,0,0,0-1.54-.06,4,4,0,0,0-.89.39,8,8,0,0,0-3.61,6.24,4.62,4.62,0,0,0,.1.95,2.19,2.19,0,0,0,.86,1.32l-2.39-1.38,0,0-.21-.13-.06,0a2.64,2.64,0,0,1-.88-2.21A8,8,0,0,1,138,348.09Z" style="fill:#263238"></path><path d="M130,385.07a4.52,4.52,0,0,1-.1.94,2.18,2.18,0,0,1-.85,1.32l0,0a2.5,2.5,0,0,1-2.63-.2,8,8,0,0,1-3.61-6.26,2.57,2.57,0,0,1,1-2.29h0l.17-.1h0a2.29,2.29,0,0,1,1.54-.06,4.17,4.17,0,0,1,.88.39A8,8,0,0,1,130,385.07Z" style="fill:#455a64"></path><path d="M129,377.3a3.37,3.37,0,0,0-1.61-.49,2,2,0,0,0-1,.29l-.09,0L124,378.49a2.29,2.29,0,0,1,1.54-.06,4.17,4.17,0,0,1,.88.39,8,8,0,0,1,3.61,6.25,4.52,4.52,0,0,1-.1.94,2.18,2.18,0,0,1-.85,1.32l2.39-1.38,0,0,.2-.12.06,0a2.67,2.67,0,0,0,.89-2.22A8,8,0,0,0,129,377.3Z" style="fill:#263238"></path><path d="M155.37,372.64a4,4,0,0,1-.11.95,2.13,2.13,0,0,1-.85,1.32l0,0a2.5,2.5,0,0,1-2.63-.2,8,8,0,0,1-3.61-6.26,2.57,2.57,0,0,1,1-2.29h0l.17-.1h0a2.29,2.29,0,0,1,1.54-.06,3.71,3.71,0,0,1,.88.39A7.94,7.94,0,0,1,155.37,372.64Z" style="fill:#455a64"></path><path d="M154.38,364.88a3.26,3.26,0,0,0-1.61-.49,1.89,1.89,0,0,0-1,.29l-.09.05-2.33,1.34a2.29,2.29,0,0,1,1.54-.06,3.71,3.71,0,0,1,.88.39,7.94,7.94,0,0,1,3.62,6.24,4,4,0,0,1-.11.95,2.13,2.13,0,0,1-.85,1.32l2.39-1.38,0,0,.2-.13.07,0a2.64,2.64,0,0,0,.88-2.21A8,8,0,0,0,154.38,364.88Z" style="fill:#263238"></path><path d="M106.34,357.4a4.54,4.54,0,0,1-.1,1,2.15,2.15,0,0,1-.86,1.32l0,0a2.48,2.48,0,0,1-2.62-.2,8,8,0,0,1-3.61-6.26,2.56,2.56,0,0,1,1-2.29h0l.18-.1h0a2.26,2.26,0,0,1,1.53-.06,4.24,4.24,0,0,1,.89.39A8,8,0,0,1,106.34,357.4Z" style="fill:#455a64"></path><path d="M105.35,349.64a3.34,3.34,0,0,0-1.6-.49,1.93,1.93,0,0,0-1,.29l-.09.05-2.33,1.34a2.26,2.26,0,0,1,1.53-.06,4.24,4.24,0,0,1,.89.39,8,8,0,0,1,3.61,6.24,4.54,4.54,0,0,1-.1,1,2.15,2.15,0,0,1-.86,1.32l2.4-1.38,0,0,.2-.12.06,0a2.67,2.67,0,0,0,.89-2.22A8,8,0,0,0,105.35,349.64Z" style="fill:#263238"></path><polygon points="127.9 349.77 140.8 346.07 140.8 348.83 127.9 356.27 127.9 349.77" style="fill:#ebebeb"></polygon><polygon points="127.9 349.77 126.63 348.99 139.56 345.46 140.8 346.07 127.9 349.77" style="fill:#f5f5f5"></polygon><polygon points="122.32 357.99 104.04 351.14 104.04 348.35 122.32 349.99 122.32 357.99" style="fill:#ebebeb"></polygon><polygon points="104.04 348.35 105.39 348 123.41 349.16 122.32 349.99 104.04 348.35" style="fill:#f5f5f5"></polygon><path d="M121.83,357.11c0,2.07,6.36,2.07,6.36,0V339h-6.36Z" style="fill:#fafafa"></path><path d="M126.6,352.4l3.5,22.71h-2.39l-3.28-22.71A3.8,3.8,0,0,0,126.6,352.4Z" style="fill:#f5f5f5"></path><polygon points="124.44 352.4 124.44 358.64 127.7 378.95 127.7 375.11 124.44 352.4" style="fill:#ebebeb"></polygon><rect x="127.71" y="375.11" width="2.39" height="3.84" style="fill:#e0e0e0"></rect><polygon points="123.35 358.45 99.77 370.81 99.77 367 123.35 352.42 123.35 358.45" style="fill:#ebebeb"></polygon><path d="M123.35,352.42a2.65,2.65,0,0,1-1.52-.68L98.3,366l1.47,1Z" style="fill:#f5f5f5"></path><polygon points="99.77 370.81 99.77 367 98.3 366.01 98.3 369.7 99.77 370.81" style="fill:#e0e0e0"></polygon><polygon points="153.07 366.45 127.88 357.82 127.88 352.17 153.07 362.64 153.07 366.45" style="fill:#ebebeb"></polygon><path d="M127.88,352.17c.21-.06.3-.43.31-1l25.62,11.15-.74.3Z" style="fill:#f5f5f5"></path><polygon points="153.81 362.33 153.81 366.02 153.07 366.45 153.07 362.64 153.81 362.33" style="fill:#e0e0e0"></polygon><rect x="127.71" y="375.11" width="2.39" height="3.84" style="opacity:0.1"></rect><polygon points="99.77 370.81 99.77 367 98.3 366.01 98.3 369.7 99.77 370.81" style="opacity:0.1"></polygon><polygon points="153.81 362.33 153.81 366.02 153.07 366.45 153.07 362.64 153.81 362.33" style="opacity:0.1"></polygon><path d="M130.4,307.54H119.63v37.28c0,3.1,10.77,3.1,10.77,0Z" style="fill:#f0f0f0"></path><path d="M86.83,302.37l41.26-21.55s2.9-14.11-6.88-29.49c0,0,2.91-27.42-2-36.54-3.57-6.95-7.85-6-7.85-6L64.53,229.94Z" style="fill:#407BFF"></path><path d="M86.83,302.37l41.26-21.55s2.9-14.11-6.88-29.49c0,0,2.91-27.42-2-36.54-3.57-6.95-7.85-6-7.85-6L64.53,229.94Z" style="opacity:0.2"></path><path d="M111.39,208.79,64.53,229.94l1.54,5,51.25-23.13C114.29,208.14,111.39,208.79,111.39,208.79Z" style="fill:#407BFF"></path><path d="M111.56,252.64c.1.73.73,1,1.41.61a2.21,2.21,0,0,0,1-2,.85.85,0,0,0-1.4-.6A2.22,2.22,0,0,0,111.56,252.64Z" style="fill:#fff;opacity:0.4"></path><path d="M104.42,256.77a.85.85,0,0,0,1.4.6,2.22,2.22,0,0,0,1.06-2c-.1-.73-.73-1-1.41-.61A2.21,2.21,0,0,0,104.42,256.77Z" style="fill:#fff;opacity:0.4"></path><path d="M97.27,260.89c.1.73.73,1,1.41.61a2.21,2.21,0,0,0,1-2,.85.85,0,0,0-1.4-.6A2.23,2.23,0,0,0,97.27,260.89Z" style="fill:#fff;opacity:0.4"></path><path d="M90.13,265a.85.85,0,0,0,1.4.61,2.25,2.25,0,0,0,1.06-2c-.1-.73-.73-1-1.41-.61A2.22,2.22,0,0,0,90.13,265Z" style="fill:#fff;opacity:0.4"></path><path d="M175.24,298.4v2.27a8.24,8.24,0,0,1-4,6.65l-46,24.14a9.2,9.2,0,0,1-8-.16L90.75,316a8.68,8.68,0,0,1-3.92-6.8v-2.27a8.22,8.22,0,0,1,4-6.64l43.53-22.74a10,10,0,0,1,8.08-.07l28.73,14.38A8,8,0,0,1,175.24,298.4Z" style="fill:#407BFF"></path><path d="M175.24,298.4v2.27a8.24,8.24,0,0,1-4,6.65l-46,24.14a9.2,9.2,0,0,1-8-.16L90.75,316a8.68,8.68,0,0,1-3.92-6.8v-2.27a8.22,8.22,0,0,1,4-6.64l43.53-22.74a10,10,0,0,1,8.08-.07l28.73,14.38A8,8,0,0,1,175.24,298.4Z" style="opacity:0.2"></path><path d="M125.23,320.12l46-24.15c2.22-1.16,2.2-3,0-4.13l-28.73-14.38a10,10,0,0,0-8.08.07L90.85,300.27c-2.22,1.16-2.26,3.12-.1,4.37L117.28,320A9.2,9.2,0,0,0,125.23,320.12Z" style="fill:#407BFF"></path><path d="M122.27,332.25a8.86,8.86,0,0,1-5-.95L90.75,316a8.71,8.71,0,0,1-3.92-6.81V306.9a8.27,8.27,0,0,1,3.45-6.28c-1.64,1.18-1.49,2.89.47,4L117.28,320a8.49,8.49,0,0,0,4.06,1Z" style="opacity:0.2"></path><path d="M122.27,332.25a8.86,8.86,0,0,1-5-.95L90.75,316a8.71,8.71,0,0,1-3.92-6.81V306.9a8.27,8.27,0,0,1,3.45-6.28c-1.64,1.18-1.49,2.89.47,4L117.28,320a8.49,8.49,0,0,0,4.06,1Z" style="opacity:0.2"></path><path d="M111.39,208.79s6.78-4.6,13.93-.47,4.79,18,4,27-1,24.54,5.25,30.21,26.79-1.86,35.74-1.86l-7.89,29.11c-8.71-4.74-22.64-9.61-34.35-11.93,0,0,.38-18.15-7.94-28.52,0,0,3.07-7.26,1.06-21.8C119.35,217,116.84,211.93,111.39,208.79Z" style="fill:#407BFF"></path><path d="M111.39,208.79s6.78-4.6,13.93-.47,4.79,18,4,27-1,24.54,5.25,30.21,26.79-1.86,35.74-1.86l-7.89,29.11c-8.71-4.74-22.64-9.61-34.35-11.93,0,0,.38-18.15-7.94-28.52,0,0,3.07-7.26,1.06-21.8C119.35,217,116.84,211.93,111.39,208.79Z" style="opacity:0.1"></path><path d="M162.44,292.75c-.41-2.6-2.06-17.58.73-24.11,2.43-5.67,8.81-6,10.82-3.57s.21,5.38-3,9.54c-2.69,3.51-3.66,6.8-3.66,15.3Z" style="fill:#407BFF"></path><g id="freepik--character--inject-16"><g id="freepik--bottom--inject-16"><path d="M153.27,328.33c.38,14.71.67,24.13,1.31,27.93a53.92,53.92,0,0,0,2.47,10.2,25.82,25.82,0,0,0,4.57,7s4.34,4.35,3.42,4.84-9.7,1.69-13.67.62-4.5-4.39-6-10.46-3-14.94-3-14.94a4,4,0,0,0,.37-1c.47-1.78-1.86-8.69-3.1-12.85Z" style="fill:#b16668"></path><path d="M139.63,361.34c.2,1.44,1.36,3.1,1.82,5.34a40.49,40.49,0,0,1,.83,7.76c0,3.18.05,3.63.05,3.63h1s-.07-4.6-.1-6.62.39-3.55,1.35-3.78C144.57,367.66,144.41,361.27,139.63,361.34Z" style="fill:#263238"></path><path d="M142.52,352.68c-.58,1.7-2.16,3.42-2.89,6a5.4,5.4,0,0,0,.17,3.29c.79.8,1.31,1.08,1.91,1.63a8.26,8.26,0,0,1,2.46,3.1,60.65,60.65,0,0,1,2.6,7.88c.7,2.64,1,4.25,3.32,5.5,1.82,1,7.34,2,11.06,2.1,5.06.16,7.1-2.5,5.15-4.38s-4.09-4-4.68-4.37a9.17,9.17,0,0,0-4.68.8c-2.79,1.3-3.65,3-6.67,1.58-2.73-1.26-4.57-6.35-4.56-13.52C145.72,354.16,142.52,352.68,142.52,352.68Z" style="fill:#263238"></path><path d="M173.24,318.86c.84,14.69,1.41,24.1,2.17,27.87a53.9,53.9,0,0,0,2.78,10.12,25.76,25.76,0,0,0,4.79,6.84s4.47,4.21,3.57,4.74-9.64,2-13.65,1-4.63-4.26-6.34-10.27-3.42-14.85-3.42-14.85a3.71,3.71,0,0,0,.35-1.05c.41-1.79-2.13-8.63-3.5-12.75Z" style="fill:#b16668"></path><path d="M160.63,352.27c.24,1.43,1.45,3.06,2,5.28a40.66,40.66,0,0,1,1.07,7.73l.16,3.64,1-.05s-.21-4.6-.3-6.62.28-3.55,1.23-3.81C165.76,358.44,165.4,352.06,160.63,352.27Z" style="fill:#263238"></path><path d="M163.25,343.53c-.53,1.71-2.06,3.49-2.7,6.09a5.32,5.32,0,0,0,.27,3.29c.81.78,1.34,1,2,1.57a8.18,8.18,0,0,1,2.56,3,59.64,59.64,0,0,1,2.84,7.8c.79,2.62,1.13,4.21,3.5,5.39,1.84.92,7.39,1.75,11.11,1.76,5.07,0,7-2.72,5-4.54s-4.22-3.84-4.82-4.22a9.16,9.16,0,0,0-4.65.94c-2.75,1.39-3.56,3.09-6.62,1.79-2.77-1.17-4.76-6.2-5-13.37C166.5,344.91,163.25,343.53,163.25,343.53Z" style="fill:#263238"></path><path d="M155.09,312.68c.45,2.62.73,5.28,1.27,7.89A177.46,177.46,0,0,0,162.11,339c4.27.69,9,1.13,12.59-2.6,0,0,.22-12.52-.65-23.94-.75-10-.28-14.39-4.5-19.12-2.66-3-4.36-5.07-15-12.47-10-6.94-14.2-9.12-14.2-9.12L134,262.93c-.26,10.19-25.35,16.13-37.41,7.46a77,77,0,0,0-1.72,9.74,28,28,0,0,0,1.9,13.71c2.7,6.1,9.89,12.15,20.08,18.26,10.47,6.27,14.36,8.63,16.41,9.79,2.56,1.46,2.28,5.21,3.18,9.36s2.46,7.91,5.63,17.42c3.78,1,10.42,1.68,12.57-1.37,0-.36.18-29.29-1.53-34.22a17,17,0,0,0-4.12-6.53l-1-1c.54.56,1.68.74,2.38,1.09a33,33,0,0,1,3.1,1.81,2.29,2.29,0,0,1,.7.61,2.44,2.44,0,0,1,.29.75Q154.83,311.21,155.09,312.68Z" style="fill:#455a64"></path><path d="M151.53,307.25c-1-.92-15-15.09-16.89-17.05a10.66,10.66,0,0,0,2.36-6.9,12.37,12.37,0,0,1-5.25,7.27l1.11.91c3,2.61,9.67,8.42,15.11,14Z" style="fill:#263238"></path></g><g id="freepik--top--inject-16"><path id="freepik--Hair--inject-16" d="M120.39,211c-1.85,1.47-3.72,2.92-5.46,4.53a23.94,23.94,0,0,0-5.53,7.12c-2-2.29-4.28-4.38-6.34-6.65A25.6,25.6,0,0,1,98,208.4a13.28,13.28,0,0,1-.76-7.5c.4-1.85,2.09-4.53,4.11-4.9a3.74,3.74,0,0,1-.08-.75c0-3.65,3.09-6.54,6.14-8.09a17.37,17.37,0,0,1,14.78-.09,15.38,15.38,0,0,1,5.87,4,9.38,9.38,0,0,1,2,6.94c-.51,4-3.17,7.36-6.06,10l-.43.39-1.33,1.14Z" style="fill:#37474f"></path><path d="M110.42,197.46c0-.14-.22-.29-.37-.21-.32.17-.47.61-.7.89a4.89,4.89,0,0,1-.87.83,8.49,8.49,0,0,1-2.21,1.26,9,9,0,0,1-4.72.44s0,.08,0,.09a8.25,8.25,0,0,0,5.33-.13,8.06,8.06,0,0,0,2.21-1.21C109.58,199,110.68,198.19,110.42,197.46Z" style="fill:#455a64"></path><path d="M110.55,199.35a4.48,4.48,0,0,0-.81.76,13.17,13.17,0,0,1-1,.93,10.38,10.38,0,0,1-2,1.21,7.75,7.75,0,0,1-4.5.63c-.06,0-.07.13,0,.15a6.46,6.46,0,0,0,5-.19,9.64,9.64,0,0,0,2.13-1.3c.3-.24.59-.5.87-.76a2.87,2.87,0,0,0,.82-.92C111.11,199.63,110.83,199.18,110.55,199.35Z" style="fill:#455a64"></path><path d="M111.05,201.93c0-.07-.15-.19-.24-.17-.34.1-.47.42-.68.69a6.22,6.22,0,0,1-.64.71,5.93,5.93,0,0,1-1.75,1.18,7.07,7.07,0,0,1-4.14.38c-.08,0-.08.18,0,.2a5.9,5.9,0,0,0,4.73-.11A6.77,6.77,0,0,0,110,203.7a6.21,6.21,0,0,0,.73-.81C111,202.58,111.2,202.33,111.05,201.93Z" style="fill:#455a64"></path><g id="freepik--arm--inject-16"><path d="M168.49,236.85a5.3,5.3,0,0,1-.3-1.77,2,2,0,0,0-.11-.8,3.31,3.31,0,0,1-.22-1,4,4,0,0,0-.17-1.14c-.23-.66-.81-.73-1.34-1.17a2.71,2.71,0,0,1-.85-1.23c-.43-.94-1-1.54-2.11-1.37a5.71,5.71,0,0,0-1.67.66l-2,1a3.81,3.81,0,0,1-1.1.43,14.64,14.64,0,0,1-2.31-.13,1.8,1.8,0,0,0-1.74,1.31c-.25.88.33,1.6.7,2.34a4.87,4.87,0,0,1,.53,1.19,11.64,11.64,0,0,1,0,1.67l.15,1.91a1.89,1.89,0,0,1-.12.74,3.43,3.43,0,0,1-1.39,1.52c-.8.58-7.61,5.33-7.61,5.33s-2.47-3.69-8.58-12.88c-5-7.47-7.05-9.1-13-8.61l-.4,15.46s5.06,7.57,13.36,18.19c3,3.85,5.43,5.9,9.43,3.79a23,23,0,0,0,6.6-5.36c4.23-5.34,4.88-6.31,7.82-10.23,2.08-2.79,3.43-3.95,5.14-6.06a4.54,4.54,0,0,0,1.35-3.46C168.54,237.1,168.52,237,168.49,236.85Z" style="fill:#b16668"></path><path d="M153.1,241.81l1.93-1.46a10.4,10.4,0,0,0,1.15,5.58,5.72,5.72,0,0,0,4.24,3.17l-1.73,2.53s-2.43.48-4.36-3.13A10.51,10.51,0,0,1,153.1,241.81Z" style="fill:#ebebeb"></path><path d="M126,224.6c2.26-.2,3.24-1.08,5.69-.21s4.41,2.23,6,6.27a46.85,46.85,0,0,0,4.87,8.78c1.07,1.63,4.26,6.57,4.26,6.57l7-5s-1.4,2.83,1,6.84,4.84,3,4.84,3-3,4.13-5.92,7.4-6.69,5.41-9.17,5.23-3.38-1.4-4.78-2.77-15.68-20.65-15.68-20.65Z" style="fill:#263238"></path><path d="M159.42,237.47a1.06,1.06,0,0,0-.47.42c-.13.16-.25.32-.37.49a4,4,0,0,0-.49,1,2.24,2.24,0,0,0-.08,1.12,4.54,4.54,0,0,0,.18.63,4.06,4.06,0,0,1,.16.69s0,0,0,0a2.81,2.81,0,0,0,0-1.08,2.9,2.9,0,0,1,.06-1.21,3.7,3.7,0,0,1,.52-1c.1-.15.21-.29.32-.43s.3-.3.27-.5C159.53,237.53,159.47,237.45,159.42,237.47Z" style="fill:#9a4a4d"></path><path d="M146.83,246a17.17,17.17,0,0,0-6.32,8.57c.22-3.71,1.06-6.82,5.48-9.87Z"></path></g><g id="freepik--top--inject-16"><g id="freepik--chest--inject-16"><path d="M136,254.41a13.63,13.63,0,0,0,1.63-15.86c-3.18-5.55-12.35-13.92-12.35-13.92s-9.9.65-14.06,1.34a90.11,90.11,0,0,0-10.82,3,27.94,27.94,0,0,1,1.38,13.11c-1.54,8.46-6.84,11-6.84,11s1,5.33,1.71,8.3c.71,3.14.08,4.87-.49,7.47s-1.24,5.65-1.66,7.22c-.65,2.44-.32,4.24.87,5,13.77,8.84,38.65,1.61,43.68-10.53-.09-2.9-1-4.36-2.18-7.54A18.41,18.41,0,0,1,136,254.41Z" style="fill:#f0f0f0"></path></g><path d="M103.88,227.83a48.91,48.91,0,0,0,18.28,10.82s2.49-7.3.75-14l3.1-.07s11.14,10.11,13.31,16.75a14,14,0,0,1-2.68,13.14s-.37,5.62,1.14,8.32,1.92,5.39,3.51,7.21,9.14,6.72,16.6,12.16,11.58,8.09,13.91,12.64,3.45,9,3.73,19.42c.18,7,0,10.26-7.45,16.62-6.73,5.74-22.28,10.44-31.42,5.38l-1-5.26c-1.09-5.59-.34-6.93-5-9.38S111,310.45,105,305.5s-10.22-8.64-11.46-20.4S96,269.69,96,264.73s-2.25-11.88-2.25-11.88l6-23.88A16.81,16.81,0,0,1,103.88,227.83Z" style="fill:#37474f"></path><g id="freepik--head--inject-16"><path d="M107.35,224.61c-.06-1.38-.7-9.39-.7-9.39,0,.52-2.17,2.66-4.81.59a5.35,5.35,0,0,1-1.45-7.28c1.38-2.09,4.71-2.16,6.21,1.05,1,1.13,2.66-.34,1.72-3.49.08-2.24,3.17-4.85,1.24-8.54,6.15-4.57,13.43-4.67,17.5-1.54a38,38,0,0,1,2.21,12.18c.13,7.39-.76,9.89-2.79,11.61a10.74,10.74,0,0,1-6.89,1.92l.1,1.19c.11,1.16.14,2,1.33,2,1.27,1.47,1.65,3.77-3.26,4.87-6.6,1.48-11.47-1.28-12.34-2.41C107.29,226.73,107.41,226,107.35,224.61Z" style="fill:#b16668"></path><path d="M119.59,221.72c-5-.24-9.18-1.57-11.41-5.62,0,0,.73,3.34,2.64,4.68a15.27,15.27,0,0,0,8.9,2.37Z" style="fill:#9a4a4d"></path><path d="M118.09,212.67l2.66.7a1.35,1.35,0,0,1-1.65,1A1.45,1.45,0,0,1,118.09,212.67Z" style="fill:#9a4a4d"></path><path d="M126.84,201.85l-2.93-1.1a1.52,1.52,0,0,1,2-.95A1.65,1.65,0,0,1,126.84,201.85Z" style="fill:#37474f"></path><path d="M113.32,203.09l2.62-1.78a1.53,1.53,0,0,0-2.16-.46A1.66,1.66,0,0,0,113.32,203.09Z" style="fill:#37474f"></path><path d="M123.74,204.42a1.34,1.34,0,0,0,1.27,1.36,1.27,1.27,0,0,0,1.34-1.23,1.36,1.36,0,0,0-1.28-1.36A1.26,1.26,0,0,0,123.74,204.42Z" style="fill:#263238"></path><path d="M115,205.16a1.33,1.33,0,0,0,1.27,1.35,1.26,1.26,0,0,0,1.34-1.22,1.35,1.35,0,0,0-1.28-1.36A1.26,1.26,0,0,0,115,205.16Z" style="fill:#263238"></path><polygon points="125.52 209.04 121.46 211.09 120.05 203.16 125.52 209.04" style="fill:#9a4a4d"></polygon><path d="M113.94,204.69s-.12-.11-.17-.09h-.09l-.16,0h-.31a5.49,5.49,0,0,0-.58,0,6,6,0,0,0-.61.1.36.36,0,0,0-.28.15c-.09.19.12.42.3.45a.93.93,0,0,0,.37-.06l.24,0a5.43,5.43,0,0,1,.56-.09l.56-.05c.11,0,.22,0,.24-.14A.28.28,0,0,0,113.94,204.69Z" style="fill:#9a4a4d"></path><path d="M114.07,205.88c0-.07-.11-.19-.2-.17a3.63,3.63,0,0,0-.85.26l-.35.18a1.67,1.67,0,0,0-.4.25.26.26,0,0,0,0,.27.39.39,0,0,0,.13.2.4.4,0,0,0,.32,0,.69.69,0,0,0,.19-.1l.38-.22.18-.1a1.83,1.83,0,0,0,.26-.16l.3-.21A.17.17,0,0,0,114.07,205.88Z" style="fill:#9a4a4d"></path><path d="M128.36,203.43h-.13l0,0-.11,0-.2,0-.37.1a1,1,0,0,0-.35.16.25.25,0,0,0-.11.19.24.24,0,0,0,.08.19l.06,0s.09,0,.08,0,0,0,0,0h0l.08,0,.15,0,.33-.07.35-.07.18,0a.22.22,0,0,0,.19-.2A.31.31,0,0,0,128.36,203.43Z" style="fill:#9a4a4d"></path><path d="M128.5,205a2.3,2.3,0,0,0-.58-.18,4.94,4.94,0,0,0-.64-.15.15.15,0,0,0-.16.18.34.34,0,0,0,.19.28,3.54,3.54,0,0,0,.58.17,4.21,4.21,0,0,0,.61.16c.1,0,.17-.09.17-.18A.37.37,0,0,0,128.5,205Z" style="fill:#9a4a4d"></path></g></g><g id="freepik--arm--inject-16"><path d="M137.14,247.35l3.48,2.63a.13.13,0,0,1-.08.24l-4.39,0Z" style="fill:#ffa8a7"></path><path d="M140.54,250.22a.13.13,0,0,0,.08-.24l-.68-.51h0a.73.73,0,0,1-.28.71l0,0Z" style="fill:#263238"></path><path d="M118.68,244.46l.38.13.46.15,16.63,5.51a1.92,1.92,0,0,0,1-1,2,2,0,0,0,0-1.86l-16.62-5.5-.89-.3C120.2,241.77,119.24,244.67,118.68,244.46Z" style="fill:#407BFF"></path><path d="M120.14,245l.85.28c.25.09.58-.39.84-1,.34-.79.44-1.81.11-1.93l-.63-.21-.23-.07c.33.12.23,1.14-.11,1.93-.25.57-.57,1-.81,1h0Z" style="fill:#ebebeb"></path><path d="M120.35,245c.57.21,1.52-2.7,1-2.91l-.86-.29c.57.21-.38,3.12-1,2.91Z" style="fill:#407BFF"></path><path d="M118.68,244.46l.84.28c.56.21,1.5-2.59,1-2.89l0,0-.86-.28C120.2,241.77,119.24,244.67,118.68,244.46Z" style="fill:#ebebeb"></path><path d="M140.66,250.14l0-.16-3.34-1.18L119.69,243c0-.06,0-.08,0-.07-.23.81-.67,1.67-1,1.55l.38.13.46.15,16.63,5.51h0l4.39,0A.12.12,0,0,0,140.66,250.14Z" style="opacity:0.15"></path><path d="M115.09,243.27l3.59,1.19c.24.09.57-.38.83-1,.35-.78.45-1.81.12-1.94h0l-3.6-1.19c-.72-.24-1.38,1.16-1.36,2.12A.78.78,0,0,0,115.09,243.27Z" style="fill:#ffa8a7"></path><path d="M116,242.73a2.39,2.39,0,0,0,.31-2.08.54.54,0,0,0-.38-.32c-.67-.06-1.25,1.24-1.24,2.15a.79.79,0,0,0,.4.78C115.34,243.35,115.69,243.16,116,242.73Z" style="fill:#f28f8f"></path><g id="freepik--arm--inject-16"><path d="M116.93,266.52c-9.81,4.91-17.17,9.48-25.76,10.8-6.9,1.06-7-4.44-6.71-9a250.56,250.56,0,0,1,4.07-28.07c1.55-6.51,1.8-8.19,11.12-10.84,4.21,6.67,3,16.63,1.61,21-1.2,5-2.69,11.84-2.69,11.84A92.38,92.38,0,0,0,111.49,259" style="fill:#b16668"></path><path d="M135.86,250.34c-.88-.52-2.17-1.41-2.69-1.68s-2.66-1.2-2.66-1.2a10,10,0,0,0,2.7-.36c1.66-.49,1.81-1.74,1.34-2.27s-2.61.14-4.57-.32-3-1-3.84-.49a27.64,27.64,0,0,1-4.9,2.71c-1.33.39-2,.61-2.2,2s-2.14,5-3.19,6.85c-1.81,3.18-3.14,2.86-8,4.75l.73,10.18s8.2-4,9.88-4.63,2.48-1.08,3.65-3.84,1.53-3.73,1.53-3.73a2.12,2.12,0,0,0,1.19-.56,3,3,0,0,0,1.33.62,4.6,4.6,0,0,0-1,1c-.53.71-.34,1.54.14,1.6a7.4,7.4,0,0,0,2.21-.63c1.06-.32,1.16-.8,1.22-1.35s.19-1.33.19-1.33,1.19-.71,1.29-1.62a12.21,12.21,0,0,0-.2-2.65c-.1-.89-.42-1.69-1-1.8l-2.88-.59c.13-.39.31-.5,1.16-.67s1.21-.39,1.63-.41.51.12,1.49.55,2.2.85,2.2.85a3.47,3.47,0,0,0,3.17.23C136.56,251.08,136.33,250.62,135.86,250.34Zm-9.48,4.11c.26,0,1,.11,1.33.09a4.65,4.65,0,0,1,.14.94c-.08.14-.17.24-.21.32a16.39,16.39,0,0,1-1.61-1C125.8,254.68,126.13,254.44,126.38,254.45Z" style="fill:#b16668"></path><path d="M106.37,260.06l3.17-.71a12.24,12.24,0,0,0-1.19,6.57c.45,3.48,2.47,4.51,2.47,4.51l-3.66,1.87a12,12,0,0,1-2.41-5.45A8.91,8.91,0,0,1,106.37,260.06Z" style="fill:#ebebeb"></path><path d="M133.21,247.1a2,2,0,0,0,1.51-1.24,3.34,3.34,0,0,1-2.91,1,18.35,18.35,0,0,1-3-.82,5.47,5.47,0,0,0-2.82.55c-.83.33-2.33.88-3.3,1.28a11,11,0,0,0,2.66-.54,11.6,11.6,0,0,1,3.16-.7,10.28,10.28,0,0,1,2,.81A10,10,0,0,0,133.21,247.1Z" style="fill:#9a4a4d"></path><path d="M127.15,250.39h0s-2.21,0-2.75-.46a2.6,2.6,0,0,0,1.74,1.1C126.26,250.65,126.43,250.53,127.15,250.39Z" style="fill:#9a4a4d"></path><path d="M126.38,254.45a3.88,3.88,0,0,1-2-1.63,2.9,2.9,0,0,0,1.67,2C125.8,254.68,126.13,254.44,126.38,254.45Z" style="fill:#9a4a4d"></path><path d="M125.52,257.82a1,1,0,0,1-.57-1.18.9.9,0,0,0-.13,1.1,3,3,0,0,0,1.33.62,3.36,3.36,0,0,1,1.42-.4C127,257.64,126.09,258.07,125.52,257.82Z" style="fill:#9a4a4d"></path><path d="M129.54,257.21a1.53,1.53,0,0,0-.4-.91,2.94,2.94,0,0,0-1.37-.7l-.13.2c1,.69,1.35.73,1.28,1.88A3.85,3.85,0,0,0,129.54,257.21Z" style="fill:#9a4a4d"></path><path d="M122.49,249s-.06-.08-.12-.1a2.66,2.66,0,0,0-.38-.1,1.17,1.17,0,0,0-.26,0,1.5,1.5,0,0,0-.37,0c-.41.11-.62.65-.73,1,0,.13,0,.28.11.14a3.58,3.58,0,0,1,.69-.6,1.33,1.33,0,0,1,.28-.1.68.68,0,0,1,.2-.07.86.86,0,0,0,.16,0,.77.77,0,0,0,.37-.12S122.49,249,122.49,249Z" style="fill:#9a4a4d"></path><path d="M123.07,251.51s0-.08-.1-.12a1.61,1.61,0,0,0-.36-.15.81.81,0,0,0-.25-.08,1.53,1.53,0,0,0-.37,0c-.42.05-.71.55-.87.9-.06.12-.09.27.08.16a3.76,3.76,0,0,1,.77-.5,2.93,2.93,0,0,1,.29,0,.78.78,0,0,1,.21,0l.17,0a.71.71,0,0,0,.38-.06S123.07,251.53,123.07,251.51Z" style="fill:#9a4a4d"></path><path d="M124.3,255c0-.05,0-.1-.08-.14a2.37,2.37,0,0,0-.33-.22,1.34,1.34,0,0,0-.24-.12,1.45,1.45,0,0,0-.36-.08c-.42,0-.79.41-1,.72-.08.11-.14.25,0,.17a3.29,3.29,0,0,1,.85-.34,1.41,1.41,0,0,1,.29,0,.81.81,0,0,1,.22,0l.15,0a.86.86,0,0,0,.39,0S124.29,255.05,124.3,255Z" style="fill:#9a4a4d"></path></g><path d="M99.77,229c-2.57.51-4.42-.87-7.78.5s-5.88,4.62-5.61,9.55a48.18,48.18,0,0,1-.56,12.12c-.76,5.31-1.87,13.62-1.89,18s.64,6.56,2.5,8.2,8.29.17,11.92-1.15,11.23-4,11.23-4-2.92-.29-3.93-4.53,1.32-7.5,2.37-8.19l-8,2s2-10.43,2.62-14.13C102.59,247.28,104.28,236.43,99.77,229Z" style="fill:#263238"></path><path d="M100.25,259.91l-.28,1.5c-4.74.59-10.88,4.54-11.63,6.42C88.86,263.88,94.21,260.76,100.25,259.91Z"></path></g><g id="freepik--Notebook--inject-16"><polygon points="166.09 219.46 145.63 230 139.56 260.38 141.38 262.13 160.61 251.58 167.92 221.22 166.09 219.46" style="fill:#f5f5f5"></polygon><polygon points="147.45 231.75 141.38 262.13 139.56 260.38 145.63 230 147.45 231.75" style="fill:#ebebeb"></polygon><polygon points="168.16 220.71 147.25 231.49 141.02 262.46 141.59 263.03 161.28 252.24 168.74 221.28 168.16 220.71" style="fill:#37474f"></polygon><polygon points="147.82 232.06 141.59 263.03 141.02 262.46 147.25 231.49 147.82 232.06" style="fill:#263238"></polygon><polygon points="168.74 221.28 147.82 232.06 141.59 263.03 161.28 252.24 168.74 221.28" style="fill:#455a64"></polygon><path d="M148.75,233.17c-.08.33.06.49.31.36a1.38,1.38,0,0,0,.58-.82c.08-.32,0-.49-.3-.36A1.42,1.42,0,0,0,148.75,233.17Z" style="opacity:0.35000000000000003"></path><path d="M148.9,227.62a1.57,1.57,0,0,0-1.53-.51,1.68,1.68,0,0,0-1,1.41,4.14,4.14,0,0,0,0,1.12l.41-.21a3.87,3.87,0,0,1,.06-.84,1.25,1.25,0,0,1,.71-1.07,1.14,1.14,0,0,1,1.09.41,4.72,4.72,0,0,1,1.19,3.86,1.82,1.82,0,0,1-.18.57,1,1,0,0,1-.52.51.85.85,0,0,1-.23,0,1,1,0,0,0-.1.27l0,.14a.55.55,0,0,0,.18,0,.86.86,0,0,0,.51-.14,1.81,1.81,0,0,0,.79-1.31A5.23,5.23,0,0,0,148.9,227.62Z" style="fill:#e0e0e0"></path><path d="M151.63,231.69c-.08.33.05.49.3.36a1.38,1.38,0,0,0,.59-.82c.08-.33-.06-.49-.3-.36A1.35,1.35,0,0,0,151.63,231.69Z" style="opacity:0.35000000000000003"></path><path d="M151.77,226.14a1.55,1.55,0,0,0-1.52-.51,1.67,1.67,0,0,0-1,1.4,3.85,3.85,0,0,0,0,1.13l.41-.22a3.78,3.78,0,0,1,0-.83,1.29,1.29,0,0,1,.71-1.07,1.16,1.16,0,0,1,1.1.41,4.75,4.75,0,0,1,1.19,3.86,2.12,2.12,0,0,1-.18.57,1,1,0,0,1-.53.51.78.78,0,0,1-.22,0,.9.9,0,0,0-.11.27.78.78,0,0,0,0,.14h.17a1.06,1.06,0,0,0,.31-.05,1,1,0,0,0,.21-.09,1.84,1.84,0,0,0,.79-1.31A5.22,5.22,0,0,0,151.77,226.14Z" style="fill:#e0e0e0"></path><path d="M154.5,230.21c-.08.32.06.49.3.36a1.41,1.41,0,0,0,.59-.82c.08-.33-.06-.49-.3-.36A1.35,1.35,0,0,0,154.5,230.21Z" style="opacity:0.35000000000000003"></path><path d="M154.65,224.66a1.57,1.57,0,0,0-1.53-.51,1.66,1.66,0,0,0-1,1.4,4.14,4.14,0,0,0,0,1.12l.41-.21a4.46,4.46,0,0,1,0-.83,1.31,1.31,0,0,1,.72-1.08,1.15,1.15,0,0,1,1.09.42,4.71,4.71,0,0,1,1.19,3.86,2.12,2.12,0,0,1-.18.57.9.9,0,0,1-.52.5.46.46,0,0,1-.23,0,1,1,0,0,0-.11.28s0,.09,0,.14h.18a1,1,0,0,0,.3-.05.78.78,0,0,0,.21-.09,1.83,1.83,0,0,0,.79-1.31A5.25,5.25,0,0,0,154.65,224.66Z" style="fill:#e0e0e0"></path><path d="M157.38,228.72c-.08.33.05.49.3.37a1.45,1.45,0,0,0,.59-.82c.07-.33-.06-.49-.31-.37A1.4,1.4,0,0,0,157.38,228.72Z" style="opacity:0.35000000000000003"></path><path d="M157.52,223.18a1.55,1.55,0,0,0-1.52-.51,1.67,1.67,0,0,0-1,1.4,3.78,3.78,0,0,0,0,1.12l.41-.21a3.75,3.75,0,0,1,0-.83,1.33,1.33,0,0,1,.71-1.08,1.15,1.15,0,0,1,1.09.42,4.72,4.72,0,0,1,1.2,3.86,2.12,2.12,0,0,1-.18.57,1,1,0,0,1-.53.5.45.45,0,0,1-.23,0,1.48,1.48,0,0,0-.1.27.89.89,0,0,0,0,.15h.17a1.67,1.67,0,0,0,.31,0l.21-.09a1.84,1.84,0,0,0,.78-1.31A5.17,5.17,0,0,0,157.52,223.18Z" style="fill:#e0e0e0"></path><path d="M160.25,227.24c-.08.33.06.49.3.36a1.35,1.35,0,0,0,.59-.82c.08-.32-.06-.48-.3-.36A1.41,1.41,0,0,0,160.25,227.24Z" style="opacity:0.35000000000000003"></path><path d="M160.4,221.69a1.57,1.57,0,0,0-1.53-.51,1.68,1.68,0,0,0-1,1.41,4.14,4.14,0,0,0,0,1.12l.41-.21a3.75,3.75,0,0,1,0-.83,1.3,1.3,0,0,1,.71-1.08,1.17,1.17,0,0,1,1.1.41,4.73,4.73,0,0,1,1.19,3.87,2.17,2.17,0,0,1-.18.56,1,1,0,0,1-.52.51.61.61,0,0,1-.23,0,1,1,0,0,0-.11.27.78.78,0,0,0,0,.14l.18,0a1.57,1.57,0,0,0,.3-.05l.21-.1a1.81,1.81,0,0,0,.79-1.31A5.26,5.26,0,0,0,160.4,221.69Z" style="fill:#e0e0e0"></path><path d="M163.12,225.76c-.07.33.06.49.31.36a1.34,1.34,0,0,0,.58-.82c.08-.32,0-.49-.3-.36A1.42,1.42,0,0,0,163.12,225.76Z" style="opacity:0.35000000000000003"></path><path d="M163.27,220.21a1.55,1.55,0,0,0-1.52-.51,1.67,1.67,0,0,0-1,1.41,3.77,3.77,0,0,0,0,1.12l.4-.21a3.87,3.87,0,0,1,.06-.84,1.25,1.25,0,0,1,.71-1.07,1.14,1.14,0,0,1,1.09.41,4.76,4.76,0,0,1,1.2,3.86,2.12,2.12,0,0,1-.19.57,1,1,0,0,1-.52.51.85.85,0,0,1-.23,0,1,1,0,0,0-.1.27l0,.14a.55.55,0,0,0,.18,0,.87.87,0,0,0,.31,0,.72.72,0,0,0,.2-.09,1.78,1.78,0,0,0,.79-1.31A5.18,5.18,0,0,0,163.27,220.21Z" style="fill:#e0e0e0"></path><path d="M166,224.28c-.08.32.06.49.3.36a1.38,1.38,0,0,0,.59-.82c.08-.33-.06-.49-.3-.36A1.35,1.35,0,0,0,166,224.28Z" style="opacity:0.35000000000000003"></path><path d="M166.14,218.73a1.55,1.55,0,0,0-1.52-.51,1.67,1.67,0,0,0-1,1.4,3.83,3.83,0,0,0,0,1.13l.41-.22a3.75,3.75,0,0,1,0-.83,1.29,1.29,0,0,1,.71-1.07,1.13,1.13,0,0,1,1.1.41A4.74,4.74,0,0,1,167,222.9a2.12,2.12,0,0,1-.18.57,1,1,0,0,1-.53.51.78.78,0,0,1-.22,0,.9.9,0,0,0-.11.27.68.68,0,0,0,0,.14h.17a1.06,1.06,0,0,0,.31-.05,1,1,0,0,0,.21-.09,1.83,1.83,0,0,0,.79-1.31A5.22,5.22,0,0,0,166.14,218.73Z" style="fill:#e0e0e0"></path></g><g id="freepik--Hand--inject-16"><path d="M165.63,228.3a15.13,15.13,0,0,0-3.39-.37,9,9,0,0,0-3.83,1.26c-.7.7-1.41,1.4-2.22,2.3s.49,1.57,1.4,1.38c1.42-.29,3.36-1.9,4.26-1.91a31.46,31.46,0,0,1,4.72.65C167.16,231.8,168.63,229.3,165.63,228.3Z" style="fill:#b16668"></path><path d="M165.63,228.3a14.5,14.5,0,0,0-3.41-.33,9,9,0,0,0-3.23,1c-.46.18-.89.77-1.25,1.11s-.77.83-1.15,1.25-.75.77-.18,1.13a1.66,1.66,0,0,0,1.46.11,28.74,28.74,0,0,0,3-1.51,2.73,2.73,0,0,1,1.76-.2c1.15.15,2.28.32,3.4.56.26,0,.55.25.78.06a1.63,1.63,0,0,0,.19-2.27,3.11,3.11,0,0,0-1.42-.91Zm0,0c1.08.29,2.2,1.3,1.76,2.52-.13.37-.44,1-.92.82a29,29,0,0,0-4.65-.5c-1.63.37-2.93,2-4.74,2-.88,0-1.83-.85-1.07-1.7s1.42-1.46,2.14-2.14a5.5,5.5,0,0,1,2.37-1.07,10.18,10.18,0,0,1,5.11.11Z" style="fill:#9a4a4d"></path><path d="M167.69,232.15c-.27-1.13-1.24-1.4-3-1.54a17.05,17.05,0,0,0-3.54-.09c-.45.13-3.4,1.75-3.79,2s-.84.68-1.58,1.24-1.14,1-.46,1.52,2.57,0,3.43-.42a12.13,12.13,0,0,1,3.58-1.26c.72.06,2.75.52,2.75.52s-3,.51-4,.82-1.85,3.51-1.85,3.51c-.36,1.25-.12,1.57.33,1.78a1.12,1.12,0,0,0,.94,0,.84.84,0,0,0,.48,1,2.12,2.12,0,0,0,2.2-.83c.58-.66,1.35-1.7,1.35-1.7a12.43,12.43,0,0,1,1.91.22c.88.19.57,1.3-.24,1.84" style="fill:#b16668"></path><path d="M156.4,233.48a21.42,21.42,0,0,1,4.76-2.84,21.87,21.87,0,0,1,4,.07c1,.07,2.32.28,2.57,1.44-.2-1.18-1.55-1.45-2.56-1.56a19.51,19.51,0,0,0-4-.18,21.63,21.63,0,0,0-4.91,2.79c-.46.44-1.35.78-1.42,1.56.23,1.22,1.81,1,2.68.76,1.77-.38,3.37-1.82,5.21-1.66.44.07.87.16,1.31.24l-1.69.34c-.66.17-1.59.22-2,.88A10.63,10.63,0,0,0,159,238.6a1.77,1.77,0,0,0,.09,1.49,1.15,1.15,0,0,0,1.22.32,1,1,0,0,0,.84,1c1.1.2,2-.68,2.55-1.47.3-.39.58-.77.87-1.17a8.44,8.44,0,0,1,2.07.25.69.69,0,0,1,.23.91,1.84,1.84,0,0,1-.67.82c.55-.33,1.2-1.33.47-1.8a6.62,6.62,0,0,0-2.2-.31c-.88,1-1.73,2.72-3.26,2.5a.79.79,0,0,1-.52-.33.8.8,0,0,1-.06-.55,3.39,3.39,0,0,1,.51-1.17l.3-.5a.8.8,0,0,0,.13-.22,5.46,5.46,0,0,1,1.17-1.56,24.8,24.8,0,0,1,3.94-1.15,10.28,10.28,0,0,0-4.16.77,2.37,2.37,0,0,0-.75.85,11.3,11.3,0,0,0-.63,1.19c-.18.4-.33.82-.51,1.22,0,.11-.12.3-.23.36a.91.91,0,0,1-.36.09.81.81,0,0,1-.69-.27c-.21-.27-.1-.77,0-1.19a13,13,0,0,1,1-2.57,2.33,2.33,0,0,1,.78-1c.32-.11.94-.23,1.3-.31q1.36-.28,2.73-.51a.23.23,0,0,0,.17-.16.21.21,0,0,0-.16-.26,11.55,11.55,0,0,0-3.24-.48c-1.63.34-2.94,1.28-4.51,1.7-.69.14-1.55.41-2.09-.14S156.05,233.86,156.4,233.48Z" style="fill:#9a4a4d"></path></g></g></g><path d="M84.86,315.13l31.86,16L116,319.39l4.91-2.84c-.35-9.1-2.85-18.43-9.29-20.5-8-2.55-18.5-3.37-24.77-9s-6-21.27-5.25-30.22,3.13-22.84-4-27-13.94.47-13.94.47c-3,2-6.6,3.41-6.3,5.82a2.57,2.57,0,0,0,2.17,2.45l17.78,67.29A14.51,14.51,0,0,0,84.86,315.13Z" style="fill:#407BFF"></path><g style="opacity:0.30000000000000004"><path d="M84.86,315.13l31.86,16L116,319.39l4.91-2.84c-.35-9.1-2.85-18.43-9.29-20.5-8-2.55-18.5-3.37-24.77-9s-6-21.27-5.25-30.22,3.13-22.84-4-27-13.94.47-13.94.47c-3,2-6.6,3.41-6.3,5.82a2.57,2.57,0,0,0,2.17,2.45l17.78,67.29A14.51,14.51,0,0,0,84.86,315.13Z"></path></g><path d="M72.93,238.12c2.86,3.42,4.33,8.86,3.81,22.22s-.32,24.14,4.91,30.68c6.2,7.77,27.46,14,27.46,14l8.3-3.8a10.42,10.42,0,0,0-5.75-5.13c-8.06-2.55-18.51-3.38-24.78-9.05s-6-21.27-5.25-30.22,3.13-22.83-4-27-13.93.46-13.93.46c-3.06,2-6.61,3.42-6.31,5.83a2.59,2.59,0,0,0,2.17,2.45C63.53,237.25,70.07,234.7,72.93,238.12Z" style="fill:#407BFF"></path><path d="M72.93,238.12c2.86,3.42,4.33,8.86,3.81,22.22s-.32,24.14,4.91,30.68c6.2,7.77,27.46,14,27.46,14l8.3-3.8a10.42,10.42,0,0,0-5.75-5.13c-8.06-2.55-18.51-3.38-24.78-9.05s-6-21.27-5.25-30.22,3.13-22.83-4-27-13.93.46-13.93.46c-3.06,2-6.61,3.42-6.31,5.83a2.59,2.59,0,0,0,2.17,2.45C63.53,237.25,70.07,234.7,72.93,238.12Z" style="opacity:0.1"></path><path d="M116.3,319.39l4.91-2.84c0-5.44-1.4-17.28-8.29-20.14-5.48-2.27-8.12,1.07-8.06,3.13.07,2.32,1.48,3.84,4.25,5.44C112.77,307.09,116.3,310.88,116.3,319.39Z" style="fill:#407BFF"></path></g></g><g id="freepik--court-bench--inject-16"><g id="freepik--court-bench--inject-16"><polygon points="353.7 333.45 423.61 293.14 423.61 210.63 353.7 250.94 353.7 333.45" style="fill:#407BFF"></polygon><polygon points="353.7 333.45 423.61 293.14 423.61 210.63 353.7 250.94 353.7 333.45" style="opacity:0.1"></polygon><polygon points="353.7 333.45 306.07 305.94 301.3 220.68 353.7 250.94 353.7 333.45" style="fill:#407BFF"></polygon><polygon points="353.7 333.45 306.07 305.94 301.3 220.68 353.7 250.94 353.7 333.45" style="opacity:0.45"></polygon><polygon points="353.7 250.94 353.7 239.93 428.38 196.88 428.38 207.88 353.7 250.94" style="fill:#407BFF"></polygon><polygon points="353.7 250.94 353.7 239.93 428.38 196.88 428.38 207.88 353.7 250.94" style="opacity:0.1"></polygon><polygon points="353.7 239.93 296.54 206.93 296.54 217.93 353.7 250.94 353.7 239.93" style="fill:#407BFF"></polygon><polygon points="353.7 239.93 296.54 206.93 296.54 217.93 353.7 250.94 353.7 239.93" style="opacity:0.45"></polygon><polygon points="423.61 216.49 423.61 210.63 353.7 250.94 301.3 220.68 301.69 226.77 353.7 256.79 423.61 216.49" style="opacity:0.2"></polygon><polygon points="353.7 239.93 296.54 206.93 371.21 163.88 428.38 196.88 353.7 239.93" style="fill:#407BFF"></polygon><polygon points="353.7 239.93 296.54 206.93 371.21 163.88 428.38 196.88 353.7 239.93" style="fill:#fff;opacity:0.2"></polygon><polygon points="363.23 261.94 414.09 232.64 414.09 287.64 363.23 316.94 363.23 261.94" style="opacity:0.15"></polygon><path d="M409.39,240.76v44.17l-41.47,23.89V264.65l41.47-23.89m1.18-2L366.75,264v46.88l43.82-25.24V238.73Z" style="fill:#407BFF"></path><polygon points="256.16 389.76 275.21 400.76 275.21 285.25 203.75 243.99 203.75 359.51 256.16 389.76" style="fill:#407BFF"></polygon><polygon points="256.16 389.76 275.21 400.76 275.21 285.25 203.75 243.99 203.75 359.51 256.16 389.76" style="opacity:0.25"></polygon><polygon points="275.21 285.25 368.32 231.5 368.32 347.01 275.21 400.76 275.21 285.25" style="fill:#407BFF"></polygon><polygon points="296.87 190.24 203.75 243.99 275.21 285.25 368.32 231.5 296.87 190.24" style="fill:#407BFF"></polygon><polygon points="296.87 190.24 203.75 243.99 275.21 285.25 368.32 231.5 296.87 190.24" style="opacity:0.1"></polygon><polygon points="279.98 299 279.98 381.51 281.34 380.72 281.34 298.21 279.98 299" style="opacity:0.2"></polygon><polygon points="283.38 297.03 283.38 379.54 284.74 378.76 284.74 296.25 283.38 297.03" style="opacity:0.2"></polygon><polygon points="286.78 295.06 286.78 377.57 288.14 376.79 288.14 294.28 286.78 295.06" style="opacity:0.2"></polygon><polygon points="355.39 255.47 355.39 337.98 356.76 337.19 356.76 254.68 355.39 255.47" style="opacity:0.2"></polygon><polygon points="358.8 253.5 358.8 336.01 360.16 335.23 360.16 252.72 358.8 253.5" style="opacity:0.2"></polygon><polygon points="362.2 251.53 362.2 334.04 363.56 333.26 363.56 250.75 362.2 251.53" style="opacity:0.2"></polygon><polygon points="293.94 296.25 349.27 264.5 349.27 336.01 294.27 367.76 293.94 296.25" style="opacity:0.1"></polygon><polygon points="347.04 334.56 349.27 336.01 294.27 367.76 294.25 365.03 347.04 334.56" style="opacity:0.25"></polygon><polygon points="347.04 265.78 293.94 296.25 294.25 365.03 347.04 334.56 347.04 265.78" style="opacity:0.1"></polygon><polygon points="336.36 284.07 303.65 302.85 303.84 345.22 305.6 346.4 338.12 327.62 338.12 285.25 336.36 284.07" style="fill:#407BFF"></polygon><polygon points="338.12 285.25 305.41 304.02 305.6 346.4 338.12 327.62 338.12 285.25" style="fill:#407BFF"></polygon><polygon points="336.36 284.07 338.12 285.25 305.41 304.02 303.65 302.85 336.36 284.07" style="opacity:0.25"></polygon><polygon points="303.65 302.85 305.41 304.02 305.6 346.4 303.84 345.22 303.65 302.85" style="opacity:0.1"></polygon><polygon points="256.16 307.25 259.2 391.52 256.16 389.76 256.16 307.25" style="opacity:0.2"></polygon><path d="M331.59,306.72h0l-3-4.75s0-.08,0-.11v-.25c0-.23-.14-.34-.31-.24L322,305v-2c0-.41-.19-.63-.43-.5a1.28,1.28,0,0,0-.42,1v2l-6.23,3.6a.73.73,0,0,0-.32.6v.06l-3,8.28s0,0,0,0a.24.24,0,0,0,0,.08c0,1.66.52,2.91,1.42,3.44a2,2,0,0,0,.95.25,2.57,2.57,0,0,0,1.27-.38c1.82-1.05,3.31-4.17,3.31-7a.34.34,0,0,0,0-.17h0l-2.89-4.52,5.6-3.23v16.75l-2,1.17a2.26,2.26,0,0,0-.95,1.82v.65l-.47.27a4.43,4.43,0,0,0-1.86,3.55v.19l11.47-6.62v-.19c0-1.37-.84-2-1.86-1.41L325,323v-.65c0-.7-.42-1-.95-.72l-2,1.17V306l5.44-3.14-2.76,7.51s0,0,0,0a.19.19,0,0,0,0,.07c0,1.67.52,2.92,1.42,3.44a1.84,1.84,0,0,0,.94.25,2.56,2.56,0,0,0,1.28-.37c1.82-1.06,3.31-4.18,3.31-7A.3.3,0,0,0,331.59,306.72Zm-16.47,3.54,2.62,4.09-5.24,3Zm-.24,10.59a1.52,1.52,0,0,1-1.56.13,3.12,3.12,0,0,1-1.1-2.69l5.63-3.26C317.68,317.45,316.41,320,314.88,320.85Zm16-14.08-5.24,3,2.62-7.12ZM328,313.28a1.51,1.51,0,0,1-1.56.12,3.12,3.12,0,0,1-1.1-2.69l5.63-3.25C330.8,309.87,329.53,312.4,328,313.28Z" style="opacity:0.25"></path><polygon points="275.24 289.86 275.24 275.47 374.55 218.19 374.55 232.58 275.24 289.86" style="fill:#407BFF"></polygon><polygon points="275.24 275.47 200.46 232.29 200.46 246.69 275.24 289.86 275.24 275.47" style="fill:#407BFF"></polygon><polygon points="275.24 275.47 200.46 232.29 200.46 246.69 275.24 289.86 275.24 275.47" style="opacity:0.25"></polygon><polygon points="368.32 241.16 368.32 236.18 275.24 289.86 203.75 248.59 203.75 253.57 275.24 294.84 368.32 241.16" style="opacity:0.2"></polygon><polygon points="275.24 275.47 200.46 232.29 299.77 175.01 374.55 218.19 275.24 275.47" style="fill:#407BFF"></polygon><polygon points="275.24 275.47 200.46 232.29 299.77 175.01 374.55 218.19 275.24 275.47" style="fill:#fff;opacity:0.30000000000000004"></polygon><polygon points="186.25 430.06 256.16 389.76 256.16 307.25 186.25 347.55 186.25 430.06" style="fill:#407BFF"></polygon><polygon points="186.25 430.06 256.16 389.76 256.16 307.25 186.25 347.55 186.25 430.06" style="opacity:0.1"></polygon><polygon points="186.25 430.06 138.61 402.56 133.85 317.3 186.25 347.55 186.25 430.06" style="fill:#407BFF"></polygon><polygon points="186.25 430.06 138.61 402.56 133.85 317.3 186.25 347.55 186.25 430.06" style="opacity:0.25"></polygon><polygon points="186.25 347.55 186.25 336.55 260.92 293.5 260.92 304.5 186.25 347.55" style="fill:#407BFF"></polygon><polygon points="186.25 347.55 186.25 336.55 260.92 293.5 260.92 304.5 186.25 347.55" style="opacity:0.1"></polygon><polygon points="186.25 336.55 129.08 303.55 129.08 314.55 186.25 347.55 186.25 336.55" style="fill:#407BFF"></polygon><polygon points="186.25 336.55 129.08 303.55 129.08 314.55 186.25 347.55 186.25 336.55" style="opacity:0.25"></polygon><polygon points="256.16 313.11 256.16 307.25 186.25 347.55 133.85 317.3 134.24 323.38 186.25 353.41 256.16 313.11" style="opacity:0.2"></polygon><polygon points="186.25 336.55 129.08 303.55 203.75 260.49 260.92 293.5 186.25 336.55" style="fill:#407BFF"></polygon><polygon points="186.25 336.55 129.08 303.55 203.75 260.49 260.92 293.5 186.25 336.55" style="fill:#fff;opacity:0.2"></polygon><polygon points="195.77 358.55 246.63 329.25 246.63 384.26 195.78 413.56 195.77 358.55" style="opacity:0.15"></polygon><path d="M241.94,337.38v44.17l-41.47,23.89V361.26l41.47-23.88m1.17-2-43.82,25.23v46.89l43.82-25.24V335.35Z" style="fill:#407BFF"></path><g id="freepik--Base--inject-16"><path d="M348.74,213.13c-4.8-2.77-12.59-2.77-17.39,0-2.4,1.39-3.59,3.2-3.59,5,0,.56,0,1.32,0,1.88,0,1.81,1.19,3.63,3.59,5,4.8,2.77,12.59,2.77,17.39,0,2.4-1.39,3.59-3.21,3.59-5,0-.56,0-1.32,0-1.88C352.33,216.33,351.14,214.52,348.74,213.13Z" style="fill:#263238"></path><path d="M331.35,213.13c-4.8,2.77-4.8,7.27,0,10s12.59,2.77,17.39,0,4.8-7.27,0-10S336.15,210.36,331.35,213.13Z" style="fill:#455a64"></path><path d="M347.23,210.8a15.89,15.89,0,0,0-14.37,0c-2,1.14-3,2.64-3,4.14v2.77c0,1.5,1,3,3,4.15a15.89,15.89,0,0,0,14.37,0c2-1.15,3-2.65,3-4.15,0-.46,0-2.3,0-2.77C350.2,213.44,349.21,211.94,347.23,210.8Z" style="fill:#37474f"></path><ellipse cx="340.04" cy="214.95" rx="10.16" ry="5.87" style="fill:#455a64"></ellipse></g><g id="freepik--Sheets--inject-16"><g style="opacity:0.2"><path d="M231,232.86l33.42,19.3a2.08,2.08,0,0,0,1.88,0l24.6-14.2a.58.58,0,0,0,0-1.09l-33.42-19.3a2.08,2.08,0,0,0-1.88,0L231,231.77A.58.58,0,0,0,231,232.86Z"></path></g><path d="M231,231.12l33.42,19.29a2,2,0,0,0,1.88,0l24.6-14.2a.57.57,0,0,0,0-1.08l-33.42-19.3a2.08,2.08,0,0,0-1.88,0L231,230A.58.58,0,0,0,231,231.12Z" style="fill:#ebebeb"></path><path d="M255.57,215.83l-23.36,13.49,32.18,18.58a2.08,2.08,0,0,0,1.88,0l23.36-13.49-32.18-18.58A2.08,2.08,0,0,0,255.57,215.83Z" style="fill:#e0e0e0"></path><path d="M231,227.72,264.39,247a2.08,2.08,0,0,0,1.88,0l24.6-14.2a.58.58,0,0,0,0-1.09l-33.42-19.3a2.08,2.08,0,0,0-1.88,0L231,226.63A.58.58,0,0,0,231,227.72Z" style="fill:#fafafa"></path></g></g></g><g id="freepik--speech-bubble--inject-16"><g id="freepik--speech-bubble--inject-16"><g id="freepik--speech-bubble--inject-16"><path d="M376.75,60.17,344.05,79a2.89,2.89,0,0,0-1.3,2.27v37.49a2.84,2.84,0,0,0,1.31,2.25l2.54,1.44a2.91,2.91,0,0,0,2.62,0l32.7-18.83a2.9,2.9,0,0,0,1.31-2.27V63.85a2.85,2.85,0,0,0-1.32-2.25l-2.54-1.44A2.94,2.94,0,0,0,376.75,60.17Z" style="fill:#407BFF"></path><path d="M383.21,63.61c-.1-.66-.64-.89-1.29-.52l-32.7,18.84a2.64,2.64,0,0,0-.92,1l-5.15-3a2.68,2.68,0,0,1,.9-.93l32.71-18.84a2.92,2.92,0,0,1,2.61,0l2.54,1.44A2.85,2.85,0,0,1,383.21,63.61Z" style="fill:#fff;opacity:0.4"></path><path d="M342.74,94.12,333.55,105a1.16,1.16,0,0,0,.19,1.79c.22.14,5.14,3,5.14,3l9-12.61Z" style="fill:#407BFF"></path><path d="M342.74,94.12,333.55,105a1.16,1.16,0,0,0,.19,1.79c.22.14,5.14,3,5.14,3l9-12.61Z" style="fill:#fff;opacity:0.4"></path><path d="M381.92,63.09l-32.7,18.84a2.9,2.9,0,0,0-1.31,2.27v13L338.72,108a1.16,1.16,0,0,0,1,2l8.2-1.53v13.27c0,.83.59,1.17,1.31.75l32.7-18.83a2.9,2.9,0,0,0,1.31-2.27V63.85C383.23,63,382.64,62.68,381.92,63.09Z" style="fill:#fff"></path><path d="M382.23,64.07v37.27a1.89,1.89,0,0,1-.81,1.4l-32.51,18.73V107.22l-1.18.22-8.2,1.52a.13.13,0,0,1-.13-.1.12.12,0,0,1,0-.16l0,0,0,0,9.2-10.85.23-.28V84.2a1.92,1.92,0,0,1,.81-1.4l32.51-18.73m.27-1.15a1.18,1.18,0,0,0-.58.17l-32.7,18.84a2.9,2.9,0,0,0-1.31,2.27v13L338.72,108a1.16,1.16,0,0,0,.81,2h.18l8.2-1.53v13.27c0,.59.3.93.73.93a1.11,1.11,0,0,0,.58-.18l32.7-18.83a2.9,2.9,0,0,0,1.31-2.27V63.85c0-.59-.3-.93-.73-.93Z" style="fill:#407BFF"></path></g><path d="M377.5,84.82h0l-3.6-8s0-.08,0-.12v-.3c0-.27-.17-.4-.37-.28l-6.48,3.74a.78.78,0,0,0-.9-.53V78c0-.49-.23-.75-.51-.59a1.47,1.47,0,0,0-.5,1.18v1.3a3.56,3.56,0,0,0-.9,1.56l-6.48,3.74a.88.88,0,0,0-.37.71V86a.33.33,0,0,0,.18.27l-3.36,11.57s0,0,0,0a.29.29,0,0,0,0,.09c0,3.78,3.09,2,4.21,1.39s4-2.41,4-5.7a.36.36,0,0,0-.06-.2h0L359,85.8l5.36-3.09a.77.77,0,0,0,.85.41V94.8l-.61.37v7.24l-1.79,1a2.68,2.68,0,0,0-1.13,2.15v.77l-.55.32a5.27,5.27,0,0,0-2.21,4.21v.22l13.59-7.84v-.22c0-1.62-1-2.37-2.21-1.67l-.55.32v-.77c0-.83-.5-1.21-1.13-.85l-1.79,1V93.82l-.61.37V82.53a3.52,3.52,0,0,0,.85-1.38l5.6-3.24-3.28,11.28s0,0,0,0a.36.36,0,0,0,0,.1c0,3.77,3.09,2,4.21,1.39s4-2.41,4-5.7A.34.34,0,0,0,377.5,84.82Zm-16,8.69-6.21,3.58,3.11-10.81Zm8.91-5,3.1-10.82,3.1,7.23Z" style="fill:#455a64"></path></g></g></svg>
